<svg width="320" height="281" viewBox="0 0 320 281" fill="none" xmlns="http://www.w3.org/2000/svg">
<path d="M300 219H299V220V278C299 279.105 299.895 280 301 280H576H577V279V220V219H576H300Z" fill="white" stroke="#E5E5E5" stroke-width="2"/>
<rect x="299" y="158" width="278" height="61" fill="white" stroke="#E5E5E5" stroke-width="2"/>
<path d="M577 98V97H576H301C299.895 97 299 97.8954 299 99V157V158H300H576H577V157V98Z" fill="white" stroke="#E5E5E5" stroke-width="2"/>
<path d="M300 1H299V2V96V97H300H576H577V96V3C577 1.89543 576.105 1 575 1H300Z" fill="#283645" stroke="#283645" stroke-width="2"/>
<path d="M-256 219H-257V220V278C-257 279.105 -256.105 280 -255 280H20H21V279V220V219H20H-256Z" fill="white" stroke="#E5E5E5" stroke-width="2"/>
<rect x="-257" y="158" width="278" height="61" fill="white" stroke="#E5E5E5" stroke-width="2"/>
<path d="M21 98V97H20H-255C-256.105 97 -257 97.8954 -257 99V157V158H-256H20H21V157V98Z" fill="white" stroke="#E5E5E5" stroke-width="2"/>
<path d="M-10.3556 249.506L0.553093 238.587C0.694664 238.447 0.807066 238.28 0.883781 238.096C0.960497 237.913 0.999998 237.716 0.999998 237.517C0.999998 237.318 0.960497 237.121 0.883781 236.937C0.807066 236.753 0.694664 236.587 0.553093 236.447C0.267986 236.166 -0.116259 236.008 -0.516582 236.008C-0.916908 236.008 -1.30115 236.166 -1.58626 236.447L-12.495 247.367L-23.4137 236.447C-23.5536 236.305 -23.7202 236.193 -23.9038 236.116C-24.0874 236.04 -24.2844 236 -24.4834 236C-24.6824 236 -24.8794 236.04 -25.0631 236.116C-25.2467 236.193 -25.4132 236.305 -25.5531 236.447C-25.8341 236.732 -25.9917 237.116 -25.9917 237.517C-25.9917 237.917 -25.8341 238.301 -25.5531 238.587L-14.6343 249.506L-25.5531 260.416C-25.6947 260.556 -25.8071 260.723 -25.8838 260.906C-25.9605 261.09 -26 261.287 -26 261.486C-26 261.685 -25.9605 261.882 -25.8838 262.066C-25.8071 262.249 -25.6947 262.416 -25.5531 262.556C-25.2693 262.839 -24.8845 262.999 -24.4834 262.999C-24.0823 262.999 -23.6976 262.839 -23.4137 262.556L-12.495 251.646L-1.58626 262.556C-1.30204 262.839 -0.917685 262.999 -0.516582 263C-0.217396 263 0.0750027 262.911 0.323683 262.744C0.572365 262.578 0.766174 262.342 0.880632 262.065C0.99509 261.789 1.02506 261.485 0.966768 261.191C0.908472 260.898 0.764519 260.628 0.553093 260.416L-10.3556 249.506Z" fill="#F25B26"/>
<path d="M-10.3556 188.506L0.553093 177.587C0.694664 177.447 0.807066 177.28 0.883781 177.096C0.960497 176.913 0.999998 176.716 0.999998 176.517C0.999998 176.318 0.960497 176.121 0.883781 175.937C0.807066 175.753 0.694664 175.587 0.553093 175.447C0.267986 175.166 -0.116259 175.008 -0.516582 175.008C-0.916908 175.008 -1.30115 175.166 -1.58626 175.447L-12.495 186.367L-23.4137 175.447C-23.5536 175.305 -23.7202 175.193 -23.9038 175.116C-24.0874 175.04 -24.2844 175 -24.4834 175C-24.6824 175 -24.8794 175.04 -25.0631 175.116C-25.2467 175.193 -25.4132 175.305 -25.5531 175.447C-25.8341 175.732 -25.9917 176.116 -25.9917 176.517C-25.9917 176.917 -25.8341 177.301 -25.5531 177.587L-14.6343 188.506L-25.5531 199.416C-25.6947 199.556 -25.8071 199.723 -25.8838 199.906C-25.9605 200.09 -26 200.287 -26 200.486C-26 200.685 -25.9605 200.882 -25.8838 201.066C-25.8071 201.249 -25.6947 201.416 -25.5531 201.556C-25.2693 201.839 -24.8845 201.999 -24.4834 201.999C-24.0823 201.999 -23.6976 201.839 -23.4137 201.556L-12.495 190.646L-1.58626 201.556C-1.30204 201.839 -0.917685 201.999 -0.516582 202C-0.217396 202 0.0750027 201.911 0.323683 201.744C0.572365 201.578 0.766174 201.342 0.880632 201.065C0.99509 200.789 1.02506 200.485 0.966768 200.191C0.908472 199.898 0.764519 199.628 0.553093 199.416L-10.3556 188.506Z" fill="#F25B26"/>
<path d="M2.55591 117.43C2.41342 117.293 2.24389 117.185 2.05711 117.112C1.87033 117.038 1.66999 117 1.46764 117C1.2653 117 1.06496 117.038 0.878176 117.112C0.691393 117.185 0.521866 117.293 0.379374 117.43L-17.6256 134.496L-25.4223 127.11C-25.7129 126.853 -26.0972 126.714 -26.4943 126.72C-26.8914 126.727 -27.2702 126.879 -27.5511 127.145C-27.8319 127.411 -27.9928 127.77 -27.9998 128.146C-28.0068 128.523 -27.8594 128.887 -27.5886 129.162L-18.7088 137.574C-18.5669 137.709 -18.3981 137.817 -18.2122 137.89C-18.0263 137.963 -17.8269 138 -17.6256 138C-17.2194 137.999 -16.8302 137.846 -16.5424 137.574L2.55591 119.482C2.84048 119.208 3 118.84 3 118.456C3 118.072 2.84048 117.703 2.55591 117.43Z" fill="#3DC644"/>
<path d="M21 2V1H20H-255C-256.105 1 -257 1.89543 -257 3V96V97H-256H20H21V96V2Z" fill="#283645" stroke="#283645" stroke-width="2"/>
<path d="M22 219H21V220V278C21 279.105 21.8954 280 23 280H298H299V279V220V219H298H22Z" fill="white" stroke="#E5E5E5" stroke-width="2"/>
<rect x="21" y="158" width="278" height="61" fill="white" stroke="#E5E5E5" stroke-width="2"/>
<path d="M299 98V97H298H23C21.8954 97 21 97.8954 21 99V157V158H22H298H299V157V98Z" fill="white" stroke="#E5E5E5" stroke-width="2"/>
<path d="M50.5654 254H49.1572L44.5361 248.935V254H43.374V244.006H44.5361V248.846L49.041 244.006H50.374L45.9512 248.859L50.5654 254ZM60.6211 248.989C60.6211 250.589 60.2155 251.847 59.4043 252.763C58.5977 253.679 57.4743 254.137 56.0342 254.137C54.5622 254.137 53.4251 253.688 52.623 252.79C51.8255 251.888 51.4268 250.616 51.4268 248.976C51.4268 247.349 51.8278 246.089 52.6299 245.195C53.432 244.298 54.5713 243.849 56.0479 243.849C57.4834 243.849 58.6045 244.304 59.4111 245.216C60.2178 246.127 60.6211 247.385 60.6211 248.989ZM52.6572 248.989C52.6572 250.343 52.9443 251.37 53.5186 252.072C54.0973 252.77 54.9359 253.118 56.0342 253.118C57.1416 253.118 57.9779 252.77 58.543 252.072C59.1081 251.375 59.3906 250.347 59.3906 248.989C59.3906 247.645 59.1081 246.626 58.543 245.934C57.9824 245.236 57.1507 244.888 56.0479 244.888C54.9404 244.888 54.0973 245.239 53.5186 245.94C52.9443 246.638 52.6572 247.654 52.6572 248.989ZM67.2793 254L63.8887 245.141H63.834C63.8978 245.842 63.9297 246.676 63.9297 247.643V254H62.8564V244.006H64.6064L67.7715 252.25H67.8262L71.0186 244.006H72.7549V254H71.5928V247.561C71.5928 246.822 71.6247 246.02 71.6885 245.154H71.6338L68.2158 254H67.2793ZM79.9258 254L76.5352 245.141H76.4805C76.5443 245.842 76.5762 246.676 76.5762 247.643V254H75.5029V244.006H77.2529L80.418 252.25H80.4727L83.665 244.006H85.4014V254H84.2393V247.561C84.2393 246.822 84.2712 246.02 84.335 245.154H84.2803L80.8623 254H79.9258ZM93.7207 254H88.1494V244.006H93.7207V245.038H89.3115V248.258H93.4541V249.283H89.3115V252.961H93.7207V254ZM103.53 254H102.368V249.297H97.1045V254H95.9424V244.006H97.1045V248.258H102.368V244.006H103.53V254ZM109.354 254H108.192V245.038H105.027V244.006H112.52V245.038H109.354V254ZM120.312 254L119.068 250.821H115.062L113.832 254H112.656L116.607 243.965H117.585L121.516 254H120.312ZM118.706 249.775L117.544 246.679C117.394 246.287 117.239 245.806 117.079 245.236C116.979 245.674 116.835 246.155 116.648 246.679L115.473 249.775H118.706ZM129.227 246.918C129.227 247.93 128.88 248.709 128.188 249.256C127.499 249.798 126.513 250.069 125.228 250.069H124.052V254H122.89V244.006H125.48C127.978 244.006 129.227 244.977 129.227 246.918ZM124.052 249.071H125.098C126.128 249.071 126.873 248.905 127.333 248.572C127.793 248.24 128.023 247.706 128.023 246.973C128.023 246.312 127.807 245.82 127.374 245.496C126.941 245.173 126.267 245.011 125.351 245.011H124.052V249.071ZM131.339 244.006H132.426V249.563C132.426 250.589 132.394 251.516 132.33 252.346H132.385L137.99 244.006H139.262V254H138.168V248.497C138.168 247.581 138.207 246.619 138.284 245.612H138.223L132.61 254H131.339V244.006ZM142.017 244.006H143.104V249.563C143.104 250.589 143.072 251.516 143.008 252.346H143.062L148.668 244.006H149.939V254H148.846V248.497C148.846 247.581 148.884 246.619 148.962 245.612H148.9L143.288 254H142.017V244.006Z" fill="#283645"/>
<path d="M47.6533 184.901C46.555 184.901 45.6868 185.268 45.0488 186.002C44.4154 186.731 44.0986 187.731 44.0986 189.003C44.0986 190.311 44.404 191.323 45.0146 192.038C45.6299 192.749 46.5049 193.104 47.6396 193.104C48.3369 193.104 49.1322 192.979 50.0254 192.729V193.747C49.3327 194.007 48.4782 194.137 47.4619 194.137C45.9899 194.137 44.8529 193.69 44.0508 192.797C43.2533 191.904 42.8545 190.634 42.8545 188.989C42.8545 187.959 43.0459 187.057 43.4287 186.282C43.8161 185.507 44.3721 184.91 45.0967 184.491C45.8258 184.072 46.6826 183.862 47.667 183.862C48.7152 183.862 49.6312 184.054 50.415 184.437L49.9229 185.435C49.1663 185.079 48.4098 184.901 47.6533 184.901ZM56.6289 194L53.2383 185.141H53.1836C53.2474 185.842 53.2793 186.676 53.2793 187.643V194H52.2061V184.006H53.9561L57.1211 192.25H57.1758L60.3682 184.006H62.1045V194H60.9424V187.561C60.9424 186.822 60.9743 186.02 61.0381 185.154H60.9834L57.5654 194H56.6289ZM71.1348 194L69.8906 190.821H65.8848L64.6543 194H63.4785L67.4297 183.965H68.4072L72.3379 194H71.1348ZM69.5283 189.775L68.3662 186.679C68.2158 186.287 68.0609 185.806 67.9014 185.236C67.8011 185.674 67.6576 186.155 67.4707 186.679L66.2949 189.775H69.5283ZM73.7256 184.006H74.8125V189.563C74.8125 190.589 74.7806 191.516 74.7168 192.346H74.7715L80.377 184.006H81.6484V194H80.5547V188.497C80.5547 187.581 80.5934 186.619 80.6709 185.612H80.6094L74.9971 194H73.7256V184.006ZM77.8682 183.206C77.0251 183.206 76.4098 183.044 76.0225 182.721C75.6351 182.393 75.4186 181.855 75.373 181.107H76.4395C76.4805 181.581 76.6035 181.912 76.8086 182.099C77.0182 182.285 77.3805 182.379 77.8955 182.379C78.3649 182.379 78.7113 182.279 78.9346 182.078C79.1624 181.878 79.3014 181.554 79.3516 181.107H80.4248C80.3701 181.827 80.14 182.358 79.7344 182.7C79.3288 183.037 78.7067 183.206 77.8682 183.206ZM91.499 194H90.3369V185.038H87.0898L86.8779 186.679C86.5999 188.862 86.3538 190.459 86.1396 191.471C85.93 192.478 85.652 193.18 85.3057 193.576C84.9593 193.973 84.499 194.166 83.9248 194.157C83.5876 194.157 83.2845 194.1 83.0156 193.986V193.009C83.2617 193.127 83.5192 193.187 83.7881 193.187C84.0296 193.187 84.2393 193.089 84.417 192.893C84.5993 192.692 84.7588 192.348 84.8955 191.86C85.0368 191.368 85.2122 190.438 85.4219 189.071C85.6361 187.7 85.8708 186.011 86.126 184.006H91.499V194ZM94.2607 184.006H95.3477V189.563C95.3477 190.589 95.3158 191.516 95.252 192.346H95.3066L100.912 184.006H102.184V194H101.09V188.497C101.09 187.581 101.129 186.619 101.206 185.612H101.145L95.5322 194H94.2607V184.006ZM112.116 194H110.708L106.087 188.935V194H104.925V184.006H106.087V188.846L110.592 184.006H111.925L107.502 188.859L112.116 194ZM113.511 184.006H114.598V189.563C114.598 190.589 114.566 191.516 114.502 192.346H114.557L120.162 184.006H121.434V194H120.34V188.497C120.34 187.581 120.379 186.619 120.456 185.612H120.395L114.782 194H113.511V184.006Z" fill="#283645"/>
<path d="M49.7109 124.918C49.7109 125.93 49.3646 126.709 48.6719 127.256C47.9837 127.798 46.9971 128.069 45.7119 128.069H44.5361V132H43.374V122.006H45.9648C48.4622 122.006 49.7109 122.977 49.7109 124.918ZM44.5361 127.071H45.582C46.612 127.071 47.3571 126.905 47.8174 126.572C48.2777 126.24 48.5078 125.706 48.5078 124.973C48.5078 124.312 48.2913 123.82 47.8584 123.496C47.4255 123.173 46.751 123.011 45.835 123.011H44.5361V127.071ZM60.4844 126.989C60.4844 128.589 60.0788 129.847 59.2676 130.763C58.4609 131.679 57.3376 132.137 55.8975 132.137C54.4255 132.137 53.2884 131.688 52.4863 130.79C51.6888 129.888 51.29 128.616 51.29 126.976C51.29 125.349 51.6911 124.089 52.4932 123.195C53.2952 122.298 54.4346 121.849 55.9111 121.849C57.3467 121.849 58.4678 122.304 59.2744 123.216C60.0811 124.127 60.4844 125.385 60.4844 126.989ZM52.5205 126.989C52.5205 128.343 52.8076 129.37 53.3818 130.072C53.9606 130.77 54.7992 131.118 55.8975 131.118C57.0049 131.118 57.8411 130.77 58.4062 130.072C58.9714 129.375 59.2539 128.347 59.2539 126.989C59.2539 125.645 58.9714 124.626 58.4062 123.934C57.8457 123.236 57.014 122.888 55.9111 122.888C54.8037 122.888 53.9606 123.239 53.3818 123.94C52.8076 124.638 52.5205 125.654 52.5205 126.989ZM68.5166 124.344C68.5166 125 68.307 125.533 67.8877 125.943C67.473 126.354 66.8988 126.613 66.165 126.723V126.777C66.999 126.891 67.6302 127.153 68.0586 127.563C68.4915 127.974 68.708 128.509 68.708 129.17C68.708 130.104 68.3594 130.833 67.6621 131.357C66.9648 131.877 65.9805 132.137 64.709 132.137C63.5469 132.137 62.5944 131.957 61.8516 131.597V130.517C62.2891 130.726 62.7607 130.888 63.2666 131.002C63.777 131.116 64.2669 131.173 64.7363 131.173C65.6387 131.173 66.32 131.002 66.7803 130.66C67.2451 130.318 67.4775 129.826 67.4775 129.184C67.4775 128.573 67.2201 128.11 66.7051 127.796C66.1947 127.481 65.4313 127.324 64.415 127.324H62.9248V126.347H64.3535C65.2878 126.347 66.0101 126.18 66.5205 125.848C67.0355 125.51 67.293 125.041 67.293 124.439C67.293 123.952 67.1084 123.562 66.7393 123.271C66.3701 122.979 65.8734 122.833 65.249 122.833C64.7477 122.833 64.2943 122.89 63.8887 123.004C63.4831 123.118 63.0137 123.343 62.4805 123.681L61.9062 122.901C62.3665 122.56 62.8815 122.302 63.4512 122.129C64.0254 121.951 64.6201 121.862 65.2354 121.862C66.2607 121.862 67.0628 122.088 67.6416 122.539C68.2249 122.986 68.5166 123.587 68.5166 124.344ZM79.5293 126.989C79.5293 128.589 79.1237 129.847 78.3125 130.763C77.5059 131.679 76.3825 132.137 74.9424 132.137C73.4704 132.137 72.3333 131.688 71.5312 130.79C70.7337 129.888 70.335 128.616 70.335 126.976C70.335 125.349 70.736 124.089 71.5381 123.195C72.3402 122.298 73.4795 121.849 74.9561 121.849C76.3916 121.849 77.5127 122.304 78.3193 123.216C79.126 124.127 79.5293 125.385 79.5293 126.989ZM71.5654 126.989C71.5654 128.343 71.8525 129.37 72.4268 130.072C73.0055 130.77 73.8441 131.118 74.9424 131.118C76.0498 131.118 76.8861 130.77 77.4512 130.072C78.0163 129.375 78.2988 128.347 78.2988 126.989C78.2988 125.645 78.0163 124.626 77.4512 123.934C76.8906 123.236 76.0589 122.888 74.9561 122.888C73.8486 122.888 73.0055 123.239 72.4268 123.94C71.8525 124.638 71.5654 125.654 71.5654 126.989ZM81.7646 122.006H84.5879C85.9141 122.006 86.8734 122.204 87.4658 122.601C88.0583 122.997 88.3545 123.624 88.3545 124.48C88.3545 125.073 88.1882 125.563 87.8555 125.95C87.5273 126.333 87.0465 126.581 86.4131 126.695V126.764C87.9307 127.023 88.6895 127.821 88.6895 129.156C88.6895 130.049 88.3864 130.747 87.7803 131.248C87.1787 131.749 86.3356 132 85.251 132H81.7646V122.006ZM82.9268 126.285H84.8408C85.6611 126.285 86.2513 126.158 86.6113 125.902C86.9714 125.643 87.1514 125.207 87.1514 124.597C87.1514 124.036 86.9508 123.633 86.5498 123.387C86.1488 123.136 85.5107 123.011 84.6357 123.011H82.9268V126.285ZM82.9268 127.27V131.009H85.0117C85.8184 131.009 86.4245 130.854 86.8301 130.544C87.2402 130.229 87.4453 129.74 87.4453 129.074C87.4453 128.454 87.2357 127.999 86.8164 127.707C86.4017 127.415 85.7682 127.27 84.916 127.27H82.9268ZM90.8428 132V122.006H92.0049V126.271H93.6387C94.8281 126.271 95.735 126.506 96.3594 126.976C96.9837 127.44 97.2959 128.145 97.2959 129.088C97.2959 130.027 96.9997 130.747 96.4072 131.248C95.8193 131.749 94.958 132 93.8232 132H90.8428ZM92.0049 131.009H93.6934C94.5182 131.009 95.1243 130.849 95.5117 130.53C95.8991 130.207 96.0928 129.726 96.0928 129.088C96.0928 128.464 95.8877 128.012 95.4775 127.734C95.0719 127.452 94.4134 127.311 93.502 127.311H92.0049V131.009ZM100.037 132H98.875V122.006H100.037V132ZM102.806 122.006H103.893V127.563C103.893 128.589 103.861 129.516 103.797 130.346H103.852L109.457 122.006H110.729V132H109.635V126.497C109.635 125.581 109.674 124.619 109.751 123.612H109.689L104.077 132H102.806V122.006ZM106.948 121.206C106.105 121.206 105.49 121.044 105.103 120.721C104.715 120.393 104.499 119.855 104.453 119.107H105.52C105.561 119.581 105.684 119.912 105.889 120.099C106.098 120.285 106.461 120.379 106.976 120.379C107.445 120.379 107.791 120.279 108.015 120.078C108.243 119.878 108.382 119.554 108.432 119.107H109.505C109.45 119.827 109.22 120.358 108.814 120.7C108.409 121.037 107.787 121.206 106.948 121.206ZM120.729 121.862H121.905V123.093H122.384C123.163 123.093 123.838 123.248 124.407 123.558C124.981 123.868 125.419 124.305 125.72 124.87C126.025 125.435 126.178 126.08 126.178 126.805C126.178 127.561 126.007 128.236 125.665 128.828C125.328 129.416 124.863 129.858 124.271 130.154C123.683 130.451 122.988 130.599 122.186 130.599H121.905V132.137H120.729V130.599H120.422C119.62 130.599 118.925 130.448 118.337 130.147C117.749 129.847 117.289 129.4 116.956 128.808C116.623 128.215 116.457 127.552 116.457 126.818C116.457 126.098 116.61 125.456 116.915 124.891C117.225 124.326 117.667 123.886 118.241 123.571C118.815 123.252 119.492 123.093 120.271 123.093H120.729V121.862ZM121.905 129.621H122.076C122.992 129.621 123.703 129.373 124.209 128.876C124.719 128.375 124.975 127.68 124.975 126.791C124.975 125.948 124.74 125.287 124.271 124.809C123.801 124.33 123.145 124.091 122.302 124.091H121.905V129.621ZM120.729 124.091H120.34C119.51 124.091 118.856 124.332 118.378 124.815C117.904 125.299 117.667 125.957 117.667 126.791C117.667 127.689 117.92 128.386 118.426 128.883C118.932 129.375 119.645 129.621 120.565 129.621H120.729V124.091ZM128.29 122.006H129.377V127.563C129.377 128.589 129.345 129.516 129.281 130.346H129.336L134.941 122.006H136.213V132H135.119V126.497C135.119 125.581 135.158 124.619 135.235 123.612H135.174L129.562 132H128.29V122.006ZM146.063 132H144.901V123.038H141.654L141.442 124.679C141.164 126.862 140.918 128.459 140.704 129.471C140.494 130.478 140.216 131.18 139.87 131.576C139.524 131.973 139.063 132.166 138.489 132.157C138.152 132.157 137.849 132.1 137.58 131.986V131.009C137.826 131.127 138.084 131.187 138.353 131.187C138.594 131.187 138.804 131.089 138.981 130.893C139.164 130.692 139.323 130.348 139.46 129.86C139.601 129.368 139.777 128.438 139.986 127.071C140.201 125.7 140.435 124.011 140.69 122.006H146.063V132ZM155.709 129.088C155.709 130.013 155.399 130.731 154.779 131.241C154.164 131.747 153.285 132 152.141 132H148.812V122.006H149.974V126.271H151.963C153.18 126.271 154.107 126.513 154.745 126.996C155.388 127.475 155.709 128.172 155.709 129.088ZM149.974 130.995H152.018C153.676 130.995 154.506 130.359 154.506 129.088C154.506 128.473 154.292 128.021 153.863 127.734C153.439 127.443 152.758 127.297 151.819 127.297H149.974V130.995ZM160.897 132H159.735V123.038H156.57V122.006H164.062V123.038H160.897V132ZM171.91 124.918C171.91 125.93 171.564 126.709 170.871 127.256C170.183 127.798 169.196 128.069 167.911 128.069H166.735V132H165.573V122.006H168.164C170.661 122.006 171.91 122.977 171.91 124.918ZM166.735 127.071H167.781C168.811 127.071 169.556 126.905 170.017 126.572C170.477 126.24 170.707 125.706 170.707 124.973C170.707 124.312 170.491 123.82 170.058 123.496C169.625 123.173 168.95 123.011 168.034 123.011H166.735V127.071Z" fill="#283645"/>
<path d="M267.644 249.506L278.553 238.587C278.695 238.447 278.807 238.28 278.884 238.096C278.96 237.913 279 237.716 279 237.517C279 237.318 278.96 237.121 278.884 236.937C278.807 236.753 278.695 236.587 278.553 236.447C278.268 236.166 277.884 236.008 277.483 236.008C277.083 236.008 276.699 236.166 276.414 236.447L265.505 247.367L254.586 236.447C254.446 236.305 254.28 236.193 254.096 236.116C253.913 236.04 253.716 236 253.517 236C253.318 236 253.121 236.04 252.937 236.116C252.753 236.193 252.587 236.305 252.447 236.447C252.166 236.732 252.008 237.116 252.008 237.517C252.008 237.917 252.166 238.301 252.447 238.587L263.366 249.506L252.447 260.416C252.305 260.556 252.193 260.723 252.116 260.906C252.04 261.09 252 261.287 252 261.486C252 261.685 252.04 261.882 252.116 262.066C252.193 262.249 252.305 262.416 252.447 262.556C252.731 262.839 253.115 262.999 253.517 262.999C253.918 262.999 254.302 262.839 254.586 262.556L265.505 251.646L276.414 262.556C276.698 262.839 277.082 262.999 277.483 263C277.783 263 278.075 262.911 278.324 262.744C278.572 262.578 278.766 262.342 278.881 262.065C278.995 261.789 279.025 261.485 278.967 261.191C278.908 260.898 278.765 260.628 278.553 260.416L267.644 249.506Z" fill="#F25B26"/>
<path d="M280.556 117.43C280.413 117.293 280.244 117.185 280.057 117.112C279.87 117.038 279.67 117 279.468 117C279.265 117 279.065 117.038 278.878 117.112C278.691 117.185 278.522 117.293 278.379 117.43L260.374 134.496L252.578 127.11C252.287 126.853 251.903 126.714 251.506 126.72C251.109 126.727 250.73 126.879 250.449 127.145C250.168 127.411 250.007 127.77 250 128.146C249.993 128.523 250.141 128.887 250.411 129.162L259.291 137.574C259.433 137.709 259.602 137.817 259.788 137.89C259.974 137.963 260.173 138 260.374 138C260.781 137.999 261.17 137.846 261.458 137.574L280.556 119.482C280.84 119.208 281 118.84 281 118.456C281 118.072 280.84 117.703 280.556 117.43Z" fill="#3DC644"/>
<path d="M280.556 178.43C280.413 178.293 280.244 178.185 280.057 178.112C279.87 178.038 279.67 178 279.468 178C279.265 178 279.065 178.038 278.878 178.112C278.691 178.185 278.522 178.293 278.379 178.43L260.374 195.496L252.578 188.11C252.287 187.853 251.903 187.714 251.506 187.72C251.109 187.727 250.73 187.879 250.449 188.145C250.168 188.411 250.007 188.77 250 189.146C249.993 189.523 250.141 189.887 250.411 190.162L259.291 198.574C259.433 198.709 259.602 198.817 259.788 198.89C259.974 198.963 260.173 199 260.374 199C260.781 198.999 261.17 198.846 261.458 198.574L280.556 180.482C280.84 180.208 281 179.84 281 179.456C281 179.072 280.84 178.703 280.556 178.43Z" fill="#3DC644"/>
<path d="M299 2V1H298H23C21.8954 1 21 1.89543 21 3V96V97H22H298H299V96V2Z" fill="#283645" stroke="#283645" stroke-width="2"/>
<path d="M131.672 51.1738C131.672 51.9707 131.42 52.6416 130.916 53.1865C130.418 53.7314 129.747 54.0801 128.903 54.2324V54.2852C129.935 54.4141 130.72 54.7422 131.259 55.2695C131.798 55.7969 132.067 56.5059 132.067 57.3965C132.067 58.5977 131.657 59.5293 130.837 60.1914C130.022 60.8477 128.848 61.1758 127.312 61.1758C126.006 61.1758 124.866 60.9326 123.894 60.4463V59.5762C124.386 59.834 124.937 60.0361 125.546 60.1826C126.161 60.3291 126.738 60.4023 127.277 60.4023C128.572 60.4023 129.545 60.1416 130.195 59.6201C130.846 59.0928 131.171 58.3516 131.171 57.3965C131.171 56.5469 130.837 55.8936 130.169 55.4365C129.507 54.9795 128.531 54.751 127.242 54.751H125.854V53.9072H127.26C128.326 53.9072 129.17 53.6553 129.791 53.1514C130.418 52.6416 130.731 51.9531 130.731 51.0859C130.731 50.3711 130.477 49.7998 129.967 49.3721C129.463 48.9385 128.801 48.7217 127.98 48.7217C127.342 48.7217 126.759 48.8125 126.231 48.9941C125.704 49.1699 125.112 49.4746 124.456 49.9082L124.025 49.3193C124.523 48.9033 125.124 48.5752 125.827 48.335C126.53 48.0889 127.242 47.9658 127.963 47.9658C129.146 47.9658 130.061 48.2471 130.705 48.8096C131.35 49.3662 131.672 50.1543 131.672 51.1738ZM135.943 58.9082L136.049 59.0928C135.609 60.6455 135.1 62.0547 134.52 63.3203H133.948C134.399 61.709 134.722 60.2383 134.915 58.9082H135.943ZM146.323 53.5996C146.323 55.2871 146.101 56.6992 145.655 57.8359C145.216 58.9727 144.571 59.8135 143.722 60.3584C142.878 60.9033 141.855 61.1758 140.654 61.1758C140.045 61.1758 139.482 61.0996 138.967 60.9473V60.1914C139.219 60.2734 139.521 60.3379 139.872 60.3848C140.229 60.4258 140.502 60.4463 140.689 60.4463C142.137 60.4463 143.271 59.9248 144.091 58.8818C144.911 57.833 145.368 56.3066 145.462 54.3027H145.356C144.929 54.8652 144.419 55.2988 143.827 55.6035C143.235 55.9023 142.617 56.0518 141.973 56.0518C140.783 56.0518 139.854 55.7236 139.187 55.0674C138.524 54.4111 138.193 53.4795 138.193 52.2725C138.193 50.9834 138.557 49.9404 139.283 49.1436C140.016 48.3467 140.965 47.9482 142.131 47.9482C142.975 47.9482 143.713 48.1709 144.346 48.6162C144.979 49.0557 145.465 49.7031 145.805 50.5586C146.15 51.4141 146.323 52.4277 146.323 53.5996ZM142.131 48.7217C141.205 48.7217 140.467 49.0352 139.916 49.6621C139.365 50.2832 139.09 51.1357 139.09 52.2197C139.09 53.2393 139.345 54.0127 139.854 54.54C140.364 55.0674 141.094 55.3311 142.043 55.3311C142.635 55.3311 143.186 55.1992 143.695 54.9355C144.211 54.6719 144.618 54.3232 144.917 53.8896C145.222 53.4502 145.374 53.0049 145.374 52.5537C145.374 51.8682 145.236 51.2266 144.961 50.6289C144.691 50.0312 144.311 49.5654 143.818 49.2314C143.332 48.8916 142.77 48.7217 142.131 48.7217ZM156.606 53.5996C156.606 55.2871 156.384 56.6992 155.938 57.8359C155.499 58.9727 154.854 59.8135 154.005 60.3584C153.161 60.9033 152.139 61.1758 150.938 61.1758C150.328 61.1758 149.766 61.0996 149.25 60.9473V60.1914C149.502 60.2734 149.804 60.3379 150.155 60.3848C150.513 60.4258 150.785 60.4463 150.973 60.4463C152.42 60.4463 153.554 59.9248 154.374 58.8818C155.194 57.833 155.651 56.3066 155.745 54.3027H155.64C155.212 54.8652 154.702 55.2988 154.11 55.6035C153.519 55.9023 152.9 56.0518 152.256 56.0518C151.066 56.0518 150.138 55.7236 149.47 55.0674C148.808 54.4111 148.477 53.4795 148.477 52.2725C148.477 50.9834 148.84 49.9404 149.566 49.1436C150.299 48.3467 151.248 47.9482 152.414 47.9482C153.258 47.9482 153.996 48.1709 154.629 48.6162C155.262 49.0557 155.748 49.7031 156.088 50.5586C156.434 51.4141 156.606 52.4277 156.606 53.5996ZM152.414 48.7217C151.488 48.7217 150.75 49.0352 150.199 49.6621C149.648 50.2832 149.373 51.1357 149.373 52.2197C149.373 53.2393 149.628 54.0127 150.138 54.54C150.647 55.0674 151.377 55.3311 152.326 55.3311C152.918 55.3311 153.469 55.1992 153.979 54.9355C154.494 54.6719 154.901 54.3232 155.2 53.8896C155.505 53.4502 155.657 53.0049 155.657 52.5537C155.657 51.8682 155.52 51.2266 155.244 50.6289C154.975 50.0312 154.594 49.5654 154.102 49.2314C153.615 48.8916 153.053 48.7217 152.414 48.7217ZM173.728 48.1504V56.4648C173.728 57.9414 173.3 59.0957 172.444 59.9277C171.589 60.7598 170.396 61.1758 168.867 61.1758C167.379 61.1758 166.216 60.7598 165.378 59.9277C164.546 59.0898 164.13 57.9238 164.13 56.4297V48.1504H165.035V56.4648C165.035 57.7012 165.378 58.665 166.063 59.3564C166.749 60.042 167.719 60.3848 168.973 60.3848C170.197 60.3848 171.146 60.0479 171.82 59.374C172.494 58.6943 172.831 57.7539 172.831 56.5527V48.1504H173.728ZM184.327 57.6865C184.327 58.7588 183.932 59.6084 183.141 60.2354C182.355 60.8623 181.31 61.1758 180.003 61.1758C178.433 61.1758 177.229 61.0029 176.391 60.6572V59.7607C177.316 60.1533 178.497 60.3496 179.933 60.3496C180.987 60.3496 181.822 60.1094 182.438 59.6289C183.059 59.1426 183.369 58.5068 183.369 57.7217C183.369 57.2354 183.267 56.834 183.062 56.5176C182.856 56.1953 182.522 55.9023 182.06 55.6387C181.597 55.375 180.917 55.0908 180.021 54.7861C178.708 54.335 177.8 53.8486 177.296 53.3271C176.798 52.7998 176.549 52.0996 176.549 51.2266C176.549 50.2656 176.924 49.4834 177.674 48.8799C178.43 48.2705 179.399 47.9658 180.583 47.9658C181.79 47.9658 182.924 48.1943 183.984 48.6514L183.659 49.4248C182.593 48.9795 181.573 48.7568 180.601 48.7568C179.651 48.7568 178.896 48.9766 178.333 49.416C177.771 49.8555 177.489 50.4531 177.489 51.209C177.489 51.6836 177.574 52.0732 177.744 52.3779C177.92 52.6826 178.204 52.958 178.597 53.2041C178.989 53.4443 179.663 53.7344 180.618 54.0742C181.62 54.4199 182.373 54.7568 182.877 55.085C183.381 55.4072 183.747 55.7764 183.976 56.1924C184.21 56.6025 184.327 57.1006 184.327 57.6865ZM196.799 54.4521C196.799 56.6084 196.233 58.2402 195.103 59.3477C193.972 60.4492 192.311 61 190.119 61H187.043V48.1504H190.515C192.565 48.1504 194.124 48.6865 195.19 49.7588C196.263 50.8311 196.799 52.3955 196.799 54.4521ZM195.823 54.4873C195.823 52.6475 195.354 51.2646 194.417 50.3389C193.485 49.4072 192.114 48.9414 190.304 48.9414H187.939V60.209H190.066C193.904 60.209 195.823 58.3018 195.823 54.4873Z" fill="white"/>
<path d="M123.609 23.4297C122.698 23.4297 121.992 23.7734 121.492 24.4609C120.992 25.1432 120.742 26.0964 120.742 27.3203C120.742 29.8672 121.698 31.1406 123.609 31.1406C124.411 31.1406 125.383 30.9401 126.523 30.5391V32.5703C125.586 32.9609 124.539 33.1562 123.383 33.1562C121.721 33.1562 120.451 32.6536 119.57 31.6484C118.69 30.638 118.25 29.1901 118.25 27.3047C118.25 26.1172 118.466 25.0781 118.898 24.1875C119.331 23.2917 119.951 22.6068 120.758 22.1328C121.57 21.6536 122.521 21.4141 123.609 21.4141C124.719 21.4141 125.833 21.6823 126.953 22.2188L126.172 24.1875C125.745 23.9844 125.315 23.8073 124.883 23.6562C124.451 23.5052 124.026 23.4297 123.609 23.4297ZM133.367 33H130.945V23.5938H127.844V21.5781H136.469V23.5938H133.367V33ZM145.219 33L144.391 30.2812H140.227L139.398 33H136.789L140.82 21.5312H143.781L147.828 33H145.219ZM143.812 28.25C143.047 25.7865 142.615 24.3932 142.516 24.0703C142.422 23.7474 142.354 23.4922 142.312 23.3047C142.141 23.9714 141.648 25.6198 140.836 28.25H143.812ZM158.633 33H156.219V28.0703H151.695V33H149.273V21.5781H151.695V26.0547H156.219V21.5781H158.633V33ZM160.164 30.9844H161.047C161.802 29.474 162.398 27.9661 162.836 26.4609C163.273 24.9505 163.599 23.3229 163.812 21.5781H170.469V30.9844H171.992V36.3281H169.656V33H162.5V36.3281H160.164V30.9844ZM165.734 23.5938C165.568 24.7865 165.289 26.0495 164.898 27.3828C164.513 28.7161 164.078 29.9167 163.594 30.9844H168.055V23.5938H165.734ZM180.75 33L179.922 30.2812H175.758L174.93 33H172.32L176.352 21.5312H179.312L183.359 33H180.75ZM179.344 28.25C178.578 25.7865 178.146 24.3932 178.047 24.0703C177.953 23.7474 177.885 23.4922 177.844 23.3047C177.672 23.9714 177.18 25.6198 176.367 28.25H179.344ZM187.227 26.9531H188.023C188.768 26.9531 189.326 26.8073 189.695 26.5156C190.065 26.2188 190.25 25.7891 190.25 25.2266C190.25 24.6589 190.094 24.2396 189.781 23.9688C189.474 23.6979 188.99 23.5625 188.328 23.5625H187.227V26.9531ZM192.695 25.1406C192.695 26.3698 192.31 27.3099 191.539 27.9609C190.773 28.612 189.682 28.9375 188.266 28.9375H187.227V33H184.805V21.5781H188.453C189.839 21.5781 190.891 21.8776 191.609 22.4766C192.333 23.0703 192.695 23.9583 192.695 25.1406ZM199.258 33H196.836V23.5938H193.734V21.5781H202.359V23.5938H199.258V33Z" fill="white"/>
<rect x="298" width="2" height="98" fill="#F2F2F2"/>
<rect x="20" width="2" height="98" fill="#F2F2F2"/>
<path d="M94 0L57 37L20 74V41L61 0H94Z" fill="#D22856"/>
<path d="M47.9192 37.3147L46.9863 38.2476L41.9785 37.0392L43.1531 42.0808L42.2831 42.9509L40.9393 36.9087L35.3757 35.7244L36.2844 34.8157L40.8378 35.8598L39.8082 31.2919L40.6831 30.417L41.8384 35.9516L47.9192 37.3147ZM41.8722 29.2279L42.6408 28.4593L46.5706 32.3892C47.2956 33.1142 47.9289 33.7925 48.4702 34.4242L48.5089 34.3855L46.5754 24.5247L47.4745 23.6256L54.5414 30.6925L53.768 31.4659L49.8769 27.5748C49.2291 26.927 48.5766 26.2197 47.9192 25.4527L47.8757 25.4962L49.8382 35.3957L48.9391 36.2948L41.8722 29.2279ZM58.6549 26.579L57.8332 27.4007L51.4962 21.0637L49.2581 23.3017L48.5283 22.5718L53.826 17.2741L54.5559 18.004L52.3179 20.242L58.6549 26.579Z" fill="white"/>
</svg>
