<svg width="836" height="281" viewBox="0 0 836 281" fill="none" xmlns="http://www.w3.org/2000/svg">
<path d="M558 219H557V220V278C557 279.105 557.895 280 559 280H834H835V279V220V219H834H558Z" fill="white" stroke="#E5E5E5" stroke-width="2"/>
<rect x="557" y="158" width="278" height="61" fill="white" stroke="#E5E5E5" stroke-width="2"/>
<path d="M835 98V97H834H559C557.895 97 557 97.8954 557 99V157V158H558H834H835V157V98Z" fill="white" stroke="#E5E5E5" stroke-width="2"/>
<path d="M586.565 254H585.157L580.536 248.935V254H579.374V244.006H580.536V248.846L585.041 244.006H586.374L581.951 248.859L586.565 254ZM596.621 248.989C596.621 250.589 596.215 251.847 595.404 252.763C594.598 253.679 593.474 254.137 592.034 254.137C590.562 254.137 589.425 253.688 588.623 252.79C587.826 251.888 587.427 250.616 587.427 248.976C587.427 247.349 587.828 246.089 588.63 245.195C589.432 244.298 590.571 243.849 592.048 243.849C593.483 243.849 594.604 244.304 595.411 245.216C596.218 246.127 596.621 247.385 596.621 248.989ZM588.657 248.989C588.657 250.343 588.944 251.37 589.519 252.072C590.097 252.77 590.936 253.118 592.034 253.118C593.142 253.118 593.978 252.77 594.543 252.072C595.108 251.375 595.391 250.347 595.391 248.989C595.391 247.645 595.108 246.626 594.543 245.934C593.982 245.236 593.151 244.888 592.048 244.888C590.94 244.888 590.097 245.239 589.519 245.94C588.944 246.638 588.657 247.654 588.657 248.989ZM603.279 254L599.889 245.141H599.834C599.898 245.842 599.93 246.676 599.93 247.643V254H598.856V244.006H600.606L603.771 252.25H603.826L607.019 244.006H608.755V254H607.593V247.561C607.593 246.822 607.625 246.02 607.688 245.154H607.634L604.216 254H603.279ZM615.926 254L612.535 245.141H612.48C612.544 245.842 612.576 246.676 612.576 247.643V254H611.503V244.006H613.253L616.418 252.25H616.473L619.665 244.006H621.401V254H620.239V247.561C620.239 246.822 620.271 246.02 620.335 245.154H620.28L616.862 254H615.926ZM629.721 254H624.149V244.006H629.721V245.038H625.312V248.258H629.454V249.283H625.312V252.961H629.721V254ZM639.53 254H638.368V249.297H633.104V254H631.942V244.006H633.104V248.258H638.368V244.006H639.53V254ZM645.354 254H644.192V245.038H641.027V244.006H648.52V245.038H645.354V254ZM656.312 254L655.068 250.821H651.062L649.832 254H648.656L652.607 243.965H653.585L657.516 254H656.312ZM654.706 249.775L653.544 246.679C653.394 246.287 653.239 245.806 653.079 245.236C652.979 245.674 652.835 246.155 652.648 246.679L651.473 249.775H654.706ZM665.227 246.918C665.227 247.93 664.88 248.709 664.188 249.256C663.499 249.798 662.513 250.069 661.228 250.069H660.052V254H658.89V244.006H661.48C663.978 244.006 665.227 244.977 665.227 246.918ZM660.052 249.071H661.098C662.128 249.071 662.873 248.905 663.333 248.572C663.793 248.24 664.023 247.706 664.023 246.973C664.023 246.312 663.807 245.82 663.374 245.496C662.941 245.173 662.267 245.011 661.351 245.011H660.052V249.071ZM667.339 244.006H668.426V249.563C668.426 250.589 668.394 251.516 668.33 252.346H668.385L673.99 244.006H675.262V254H674.168V248.497C674.168 247.581 674.207 246.619 674.284 245.612H674.223L668.61 254H667.339V244.006ZM678.017 244.006H679.104V249.563C679.104 250.589 679.072 251.516 679.008 252.346H679.062L684.668 244.006H685.939V254H684.846V248.497C684.846 247.581 684.884 246.619 684.962 245.612H684.9L679.288 254H678.017V244.006Z" fill="#283645"/>
<path d="M583.653 184.901C582.555 184.901 581.687 185.268 581.049 186.002C580.415 186.731 580.099 187.731 580.099 189.003C580.099 190.311 580.404 191.323 581.015 192.038C581.63 192.749 582.505 193.104 583.64 193.104C584.337 193.104 585.132 192.979 586.025 192.729V193.747C585.333 194.007 584.478 194.137 583.462 194.137C581.99 194.137 580.853 193.69 580.051 192.797C579.253 191.904 578.854 190.634 578.854 188.989C578.854 187.959 579.046 187.057 579.429 186.282C579.816 185.507 580.372 184.91 581.097 184.491C581.826 184.072 582.683 183.862 583.667 183.862C584.715 183.862 585.631 184.054 586.415 184.437L585.923 185.435C585.166 185.079 584.41 184.901 583.653 184.901ZM592.629 194L589.238 185.141H589.184C589.247 185.842 589.279 186.676 589.279 187.643V194H588.206V184.006H589.956L593.121 192.25H593.176L596.368 184.006H598.104V194H596.942V187.561C596.942 186.822 596.974 186.02 597.038 185.154H596.983L593.565 194H592.629ZM607.135 194L605.891 190.821H601.885L600.654 194H599.479L603.43 183.965H604.407L608.338 194H607.135ZM605.528 189.775L604.366 186.679C604.216 186.287 604.061 185.806 603.901 185.236C603.801 185.674 603.658 186.155 603.471 186.679L602.295 189.775H605.528ZM609.726 184.006H610.812V189.563C610.812 190.589 610.781 191.516 610.717 192.346H610.771L616.377 184.006H617.648V194H616.555V188.497C616.555 187.581 616.593 186.619 616.671 185.612H616.609L610.997 194H609.726V184.006ZM613.868 183.206C613.025 183.206 612.41 183.044 612.022 182.721C611.635 182.393 611.419 181.855 611.373 181.107H612.439C612.48 181.581 612.604 181.912 612.809 182.099C613.018 182.285 613.381 182.379 613.896 182.379C614.365 182.379 614.711 182.279 614.935 182.078C615.162 181.878 615.301 181.554 615.352 181.107H616.425C616.37 181.827 616.14 182.358 615.734 182.7C615.329 183.037 614.707 183.206 613.868 183.206ZM627.499 194H626.337V185.038H623.09L622.878 186.679C622.6 188.862 622.354 190.459 622.14 191.471C621.93 192.478 621.652 193.18 621.306 193.576C620.959 193.973 620.499 194.166 619.925 194.157C619.588 194.157 619.285 194.1 619.016 193.986V193.009C619.262 193.127 619.519 193.187 619.788 193.187C620.03 193.187 620.239 193.089 620.417 192.893C620.599 192.692 620.759 192.348 620.896 191.86C621.037 191.368 621.212 190.438 621.422 189.071C621.636 187.7 621.871 186.011 622.126 184.006H627.499V194ZM630.261 184.006H631.348V189.563C631.348 190.589 631.316 191.516 631.252 192.346H631.307L636.912 184.006H638.184V194H637.09V188.497C637.09 187.581 637.129 186.619 637.206 185.612H637.145L631.532 194H630.261V184.006ZM648.116 194H646.708L642.087 188.935V194H640.925V184.006H642.087V188.846L646.592 184.006H647.925L643.502 188.859L648.116 194ZM649.511 184.006H650.598V189.563C650.598 190.589 650.566 191.516 650.502 192.346H650.557L656.162 184.006H657.434V194H656.34V188.497C656.34 187.581 656.379 186.619 656.456 185.612H656.395L650.782 194H649.511V184.006Z" fill="#283645"/>
<path d="M585.711 124.918C585.711 125.93 585.365 126.709 584.672 127.256C583.984 127.798 582.997 128.069 581.712 128.069H580.536V132H579.374V122.006H581.965C584.462 122.006 585.711 122.977 585.711 124.918ZM580.536 127.071H581.582C582.612 127.071 583.357 126.905 583.817 126.572C584.278 126.24 584.508 125.706 584.508 124.973C584.508 124.312 584.291 123.82 583.858 123.496C583.425 123.173 582.751 123.011 581.835 123.011H580.536V127.071ZM596.484 126.989C596.484 128.589 596.079 129.847 595.268 130.763C594.461 131.679 593.338 132.137 591.897 132.137C590.425 132.137 589.288 131.688 588.486 130.79C587.689 129.888 587.29 128.616 587.29 126.976C587.29 125.349 587.691 124.089 588.493 123.195C589.295 122.298 590.435 121.849 591.911 121.849C593.347 121.849 594.468 122.304 595.274 123.216C596.081 124.127 596.484 125.385 596.484 126.989ZM588.521 126.989C588.521 128.343 588.808 129.37 589.382 130.072C589.961 130.77 590.799 131.118 591.897 131.118C593.005 131.118 593.841 130.77 594.406 130.072C594.971 129.375 595.254 128.347 595.254 126.989C595.254 125.645 594.971 124.626 594.406 123.934C593.846 123.236 593.014 122.888 591.911 122.888C590.804 122.888 589.961 123.239 589.382 123.94C588.808 124.638 588.521 125.654 588.521 126.989ZM604.517 124.344C604.517 125 604.307 125.533 603.888 125.943C603.473 126.354 602.899 126.613 602.165 126.723V126.777C602.999 126.891 603.63 127.153 604.059 127.563C604.492 127.974 604.708 128.509 604.708 129.17C604.708 130.104 604.359 130.833 603.662 131.357C602.965 131.877 601.98 132.137 600.709 132.137C599.547 132.137 598.594 131.957 597.852 131.597V130.517C598.289 130.726 598.761 130.888 599.267 131.002C599.777 131.116 600.267 131.173 600.736 131.173C601.639 131.173 602.32 131.002 602.78 130.66C603.245 130.318 603.478 129.826 603.478 129.184C603.478 128.573 603.22 128.11 602.705 127.796C602.195 127.481 601.431 127.324 600.415 127.324H598.925V126.347H600.354C601.288 126.347 602.01 126.18 602.521 125.848C603.035 125.51 603.293 125.041 603.293 124.439C603.293 123.952 603.108 123.562 602.739 123.271C602.37 122.979 601.873 122.833 601.249 122.833C600.748 122.833 600.294 122.89 599.889 123.004C599.483 123.118 599.014 123.343 598.48 123.681L597.906 122.901C598.367 122.56 598.882 122.302 599.451 122.129C600.025 121.951 600.62 121.862 601.235 121.862C602.261 121.862 603.063 122.088 603.642 122.539C604.225 122.986 604.517 123.587 604.517 124.344ZM615.529 126.989C615.529 128.589 615.124 129.847 614.312 130.763C613.506 131.679 612.382 132.137 610.942 132.137C609.47 132.137 608.333 131.688 607.531 130.79C606.734 129.888 606.335 128.616 606.335 126.976C606.335 125.349 606.736 124.089 607.538 123.195C608.34 122.298 609.479 121.849 610.956 121.849C612.392 121.849 613.513 122.304 614.319 123.216C615.126 124.127 615.529 125.385 615.529 126.989ZM607.565 126.989C607.565 128.343 607.853 129.37 608.427 130.072C609.006 130.77 609.844 131.118 610.942 131.118C612.05 131.118 612.886 130.77 613.451 130.072C614.016 129.375 614.299 128.347 614.299 126.989C614.299 125.645 614.016 124.626 613.451 123.934C612.891 123.236 612.059 122.888 610.956 122.888C609.849 122.888 609.006 123.239 608.427 123.94C607.853 124.638 607.565 125.654 607.565 126.989ZM617.765 122.006H620.588C621.914 122.006 622.873 122.204 623.466 122.601C624.058 122.997 624.354 123.624 624.354 124.48C624.354 125.073 624.188 125.563 623.855 125.95C623.527 126.333 623.047 126.581 622.413 126.695V126.764C623.931 127.023 624.689 127.821 624.689 129.156C624.689 130.049 624.386 130.747 623.78 131.248C623.179 131.749 622.336 132 621.251 132H617.765V122.006ZM618.927 126.285H620.841C621.661 126.285 622.251 126.158 622.611 125.902C622.971 125.643 623.151 125.207 623.151 124.597C623.151 124.036 622.951 123.633 622.55 123.387C622.149 123.136 621.511 123.011 620.636 123.011H618.927V126.285ZM618.927 127.27V131.009H621.012C621.818 131.009 622.424 130.854 622.83 130.544C623.24 130.229 623.445 129.74 623.445 129.074C623.445 128.454 623.236 127.999 622.816 127.707C622.402 127.415 621.768 127.27 620.916 127.27H618.927ZM626.843 132V122.006H628.005V126.271H629.639C630.828 126.271 631.735 126.506 632.359 126.976C632.984 127.44 633.296 128.145 633.296 129.088C633.296 130.027 633 130.747 632.407 131.248C631.819 131.749 630.958 132 629.823 132H626.843ZM628.005 131.009H629.693C630.518 131.009 631.124 130.849 631.512 130.53C631.899 130.207 632.093 129.726 632.093 129.088C632.093 128.464 631.888 128.012 631.478 127.734C631.072 127.452 630.413 127.311 629.502 127.311H628.005V131.009ZM636.037 132H634.875V122.006H636.037V132ZM638.806 122.006H639.893V127.563C639.893 128.589 639.861 129.516 639.797 130.346H639.852L645.457 122.006H646.729V132H645.635V126.497C645.635 125.581 645.674 124.619 645.751 123.612H645.689L640.077 132H638.806V122.006ZM642.948 121.206C642.105 121.206 641.49 121.044 641.103 120.721C640.715 120.393 640.499 119.855 640.453 119.107H641.52C641.561 119.581 641.684 119.912 641.889 120.099C642.098 120.285 642.461 120.379 642.976 120.379C643.445 120.379 643.791 120.279 644.015 120.078C644.243 119.878 644.382 119.554 644.432 119.107H645.505C645.45 119.827 645.22 120.358 644.814 120.7C644.409 121.037 643.787 121.206 642.948 121.206ZM656.729 121.862H657.905V123.093H658.384C659.163 123.093 659.838 123.248 660.407 123.558C660.981 123.868 661.419 124.305 661.72 124.87C662.025 125.435 662.178 126.08 662.178 126.805C662.178 127.561 662.007 128.236 661.665 128.828C661.328 129.416 660.863 129.858 660.271 130.154C659.683 130.451 658.988 130.599 658.186 130.599H657.905V132.137H656.729V130.599H656.422C655.62 130.599 654.925 130.448 654.337 130.147C653.749 129.847 653.289 129.4 652.956 128.808C652.623 128.215 652.457 127.552 652.457 126.818C652.457 126.098 652.61 125.456 652.915 124.891C653.225 124.326 653.667 123.886 654.241 123.571C654.815 123.252 655.492 123.093 656.271 123.093H656.729V121.862ZM657.905 129.621H658.076C658.992 129.621 659.703 129.373 660.209 128.876C660.719 128.375 660.975 127.68 660.975 126.791C660.975 125.948 660.74 125.287 660.271 124.809C659.801 124.33 659.145 124.091 658.302 124.091H657.905V129.621ZM656.729 124.091H656.34C655.51 124.091 654.856 124.332 654.378 124.815C653.904 125.299 653.667 125.957 653.667 126.791C653.667 127.689 653.92 128.386 654.426 128.883C654.932 129.375 655.645 129.621 656.565 129.621H656.729V124.091ZM664.29 122.006H665.377V127.563C665.377 128.589 665.345 129.516 665.281 130.346H665.336L670.941 122.006H672.213V132H671.119V126.497C671.119 125.581 671.158 124.619 671.235 123.612H671.174L665.562 132H664.29V122.006ZM682.063 132H680.901V123.038H677.654L677.442 124.679C677.164 126.862 676.918 128.459 676.704 129.471C676.494 130.478 676.216 131.18 675.87 131.576C675.524 131.973 675.063 132.166 674.489 132.157C674.152 132.157 673.849 132.1 673.58 131.986V131.009C673.826 131.127 674.084 131.187 674.353 131.187C674.594 131.187 674.804 131.089 674.981 130.893C675.164 130.692 675.323 130.348 675.46 129.86C675.601 129.368 675.777 128.438 675.986 127.071C676.201 125.7 676.435 124.011 676.69 122.006H682.063V132ZM691.709 129.088C691.709 130.013 691.399 130.731 690.779 131.241C690.164 131.747 689.285 132 688.141 132H684.812V122.006H685.974V126.271H687.963C689.18 126.271 690.107 126.513 690.745 126.996C691.388 127.475 691.709 128.172 691.709 129.088ZM685.974 130.995H688.018C689.676 130.995 690.506 130.359 690.506 129.088C690.506 128.473 690.292 128.021 689.863 127.734C689.439 127.443 688.758 127.297 687.819 127.297H685.974V130.995ZM696.897 132H695.735V123.038H692.57V122.006H700.062V123.038H696.897V132ZM707.91 124.918C707.91 125.93 707.564 126.709 706.871 127.256C706.183 127.798 705.196 128.069 703.911 128.069H702.735V132H701.573V122.006H704.164C706.661 122.006 707.91 122.977 707.91 124.918ZM702.735 127.071H703.781C704.811 127.071 705.556 126.905 706.017 126.572C706.477 126.24 706.707 125.706 706.707 124.973C706.707 124.312 706.491 123.82 706.058 123.496C705.625 123.173 704.95 123.011 704.034 123.011H702.735V127.071Z" fill="#283645"/>
<path d="M816.556 117.43C816.413 117.293 816.244 117.185 816.057 117.112C815.87 117.038 815.67 117 815.468 117C815.265 117 815.065 117.038 814.878 117.112C814.691 117.185 814.522 117.293 814.379 117.43L796.374 134.496L788.578 127.11C788.287 126.853 787.903 126.714 787.506 126.72C787.109 126.727 786.73 126.879 786.449 127.145C786.168 127.411 786.007 127.77 786 128.146C785.993 128.523 786.141 128.887 786.411 129.162L795.291 137.574C795.433 137.709 795.602 137.817 795.788 137.89C795.974 137.963 796.173 138 796.374 138C796.781 137.999 797.17 137.846 797.458 137.574L816.556 119.482C816.84 119.208 817 118.84 817 118.456C817 118.072 816.84 117.703 816.556 117.43V117.43Z" fill="#3DC644"/>
<path d="M816.556 178.43C816.413 178.293 816.244 178.185 816.057 178.112C815.87 178.038 815.67 178 815.468 178C815.265 178 815.065 178.038 814.878 178.112C814.691 178.185 814.522 178.293 814.379 178.43L796.374 195.496L788.578 188.11C788.287 187.853 787.903 187.714 787.506 187.72C787.109 187.727 786.73 187.879 786.449 188.145C786.168 188.411 786.007 188.77 786 189.146C785.993 189.523 786.141 189.887 786.411 190.162L795.291 198.574C795.433 198.709 795.602 198.817 795.788 198.89C795.974 198.963 796.173 199 796.374 199C796.781 198.999 797.17 198.846 797.458 198.574L816.556 180.482C816.84 180.208 817 179.84 817 179.456C817 179.072 816.84 178.703 816.556 178.43V178.43Z" fill="#3DC644"/>
<path d="M816.556 239.43C816.413 239.293 816.244 239.185 816.057 239.112C815.87 239.038 815.67 239 815.468 239C815.265 239 815.065 239.038 814.878 239.112C814.691 239.185 814.522 239.293 814.379 239.43L796.374 256.496L788.578 249.11C788.287 248.853 787.903 248.714 787.506 248.72C787.109 248.727 786.73 248.879 786.449 249.145C786.168 249.411 786.007 249.77 786 250.146C785.993 250.523 786.141 250.887 786.411 251.162L795.291 259.574C795.433 259.709 795.602 259.817 795.788 259.89C795.974 259.963 796.173 260 796.374 260C796.781 259.999 797.17 259.846 797.458 259.574L816.556 241.482C816.84 241.208 817 240.84 817 240.456C817 240.072 816.84 239.703 816.556 239.43V239.43Z" fill="#3DC644"/>
<path d="M558 1H557V2V96V97H558H834H835V96V3C835 1.89543 834.105 1 833 1H558Z" fill="#283645" stroke="#283645" stroke-width="2"/>
<path d="M668.173 53.5996C668.173 55.2871 667.95 56.6992 667.505 57.8359C667.065 58.9727 666.421 59.8135 665.571 60.3584C664.728 60.9033 663.705 61.1758 662.504 61.1758C661.895 61.1758 661.332 61.0996 660.816 60.9473V60.1914C661.068 60.2734 661.37 60.3379 661.722 60.3848C662.079 60.4258 662.352 60.4463 662.539 60.4463C663.986 60.4463 665.12 59.9248 665.94 58.8818C666.761 57.833 667.218 56.3066 667.312 54.3027H667.206C666.778 54.8652 666.269 55.2988 665.677 55.6035C665.085 55.9023 664.467 56.0518 663.822 56.0518C662.633 56.0518 661.704 55.7236 661.036 55.0674C660.374 54.4111 660.043 53.4795 660.043 52.2725C660.043 50.9834 660.406 49.9404 661.133 49.1436C661.865 48.3467 662.814 47.9482 663.98 47.9482C664.824 47.9482 665.562 48.1709 666.195 48.6162C666.828 49.0557 667.314 49.7031 667.654 50.5586C668 51.4141 668.173 52.4277 668.173 53.5996ZM663.98 48.7217C663.055 48.7217 662.316 49.0352 661.766 49.6621C661.215 50.2832 660.939 51.1357 660.939 52.2197C660.939 53.2393 661.194 54.0127 661.704 54.54C662.214 55.0674 662.943 55.3311 663.893 55.3311C664.484 55.3311 665.035 55.1992 665.545 54.9355C666.061 54.6719 666.468 54.3232 666.767 53.8896C667.071 53.4502 667.224 53.0049 667.224 52.5537C667.224 51.8682 667.086 51.2266 666.811 50.6289C666.541 50.0312 666.16 49.5654 665.668 49.2314C665.182 48.8916 664.619 48.7217 663.98 48.7217ZM671.943 58.9082L672.049 59.0928C671.609 60.6455 671.1 62.0547 670.52 63.3203H669.948C670.399 61.709 670.722 60.2383 670.915 58.9082H671.943ZM682.323 53.5996C682.323 55.2871 682.101 56.6992 681.655 57.8359C681.216 58.9727 680.571 59.8135 679.722 60.3584C678.878 60.9033 677.855 61.1758 676.654 61.1758C676.045 61.1758 675.482 61.0996 674.967 60.9473V60.1914C675.219 60.2734 675.521 60.3379 675.872 60.3848C676.229 60.4258 676.502 60.4463 676.689 60.4463C678.137 60.4463 679.271 59.9248 680.091 58.8818C680.911 57.833 681.368 56.3066 681.462 54.3027H681.356C680.929 54.8652 680.419 55.2988 679.827 55.6035C679.235 55.9023 678.617 56.0518 677.973 56.0518C676.783 56.0518 675.854 55.7236 675.187 55.0674C674.524 54.4111 674.193 53.4795 674.193 52.2725C674.193 50.9834 674.557 49.9404 675.283 49.1436C676.016 48.3467 676.965 47.9482 678.131 47.9482C678.975 47.9482 679.713 48.1709 680.346 48.6162C680.979 49.0557 681.465 49.7031 681.805 50.5586C682.15 51.4141 682.323 52.4277 682.323 53.5996ZM678.131 48.7217C677.205 48.7217 676.467 49.0352 675.916 49.6621C675.365 50.2832 675.09 51.1357 675.09 52.2197C675.09 53.2393 675.345 54.0127 675.854 54.54C676.364 55.0674 677.094 55.3311 678.043 55.3311C678.635 55.3311 679.186 55.1992 679.695 54.9355C680.211 54.6719 680.618 54.3232 680.917 53.8896C681.222 53.4502 681.374 53.0049 681.374 52.5537C681.374 51.8682 681.236 51.2266 680.961 50.6289C680.691 50.0312 680.311 49.5654 679.818 49.2314C679.332 48.8916 678.77 48.7217 678.131 48.7217ZM692.606 53.5996C692.606 55.2871 692.384 56.6992 691.938 57.8359C691.499 58.9727 690.854 59.8135 690.005 60.3584C689.161 60.9033 688.139 61.1758 686.938 61.1758C686.328 61.1758 685.766 61.0996 685.25 60.9473V60.1914C685.502 60.2734 685.804 60.3379 686.155 60.3848C686.513 60.4258 686.785 60.4463 686.973 60.4463C688.42 60.4463 689.554 59.9248 690.374 58.8818C691.194 57.833 691.651 56.3066 691.745 54.3027H691.64C691.212 54.8652 690.702 55.2988 690.11 55.6035C689.519 55.9023 688.9 56.0518 688.256 56.0518C687.066 56.0518 686.138 55.7236 685.47 55.0674C684.808 54.4111 684.477 53.4795 684.477 52.2725C684.477 50.9834 684.84 49.9404 685.566 49.1436C686.299 48.3467 687.248 47.9482 688.414 47.9482C689.258 47.9482 689.996 48.1709 690.629 48.6162C691.262 49.0557 691.748 49.7031 692.088 50.5586C692.434 51.4141 692.606 52.4277 692.606 53.5996ZM688.414 48.7217C687.488 48.7217 686.75 49.0352 686.199 49.6621C685.648 50.2832 685.373 51.1357 685.373 52.2197C685.373 53.2393 685.628 54.0127 686.138 54.54C686.647 55.0674 687.377 55.3311 688.326 55.3311C688.918 55.3311 689.469 55.1992 689.979 54.9355C690.494 54.6719 690.901 54.3232 691.2 53.8896C691.505 53.4502 691.657 53.0049 691.657 52.5537C691.657 51.8682 691.52 51.2266 691.244 50.6289C690.975 50.0312 690.594 49.5654 690.102 49.2314C689.615 48.8916 689.053 48.7217 688.414 48.7217ZM709.728 48.1504V56.4648C709.728 57.9414 709.3 59.0957 708.444 59.9277C707.589 60.7598 706.396 61.1758 704.867 61.1758C703.379 61.1758 702.216 60.7598 701.378 59.9277C700.546 59.0898 700.13 57.9238 700.13 56.4297V48.1504H701.035V56.4648C701.035 57.7012 701.378 58.665 702.063 59.3564C702.749 60.042 703.719 60.3848 704.973 60.3848C706.197 60.3848 707.146 60.0479 707.82 59.374C708.494 58.6943 708.831 57.7539 708.831 56.5527V48.1504H709.728ZM720.327 57.6865C720.327 58.7588 719.932 59.6084 719.141 60.2354C718.355 60.8623 717.31 61.1758 716.003 61.1758C714.433 61.1758 713.229 61.0029 712.391 60.6572V59.7607C713.316 60.1533 714.497 60.3496 715.933 60.3496C716.987 60.3496 717.822 60.1094 718.438 59.6289C719.059 59.1426 719.369 58.5068 719.369 57.7217C719.369 57.2354 719.267 56.834 719.062 56.5176C718.856 56.1953 718.522 55.9023 718.06 55.6387C717.597 55.375 716.917 55.0908 716.021 54.7861C714.708 54.335 713.8 53.8486 713.296 53.3271C712.798 52.7998 712.549 52.0996 712.549 51.2266C712.549 50.2656 712.924 49.4834 713.674 48.8799C714.43 48.2705 715.399 47.9658 716.583 47.9658C717.79 47.9658 718.924 48.1943 719.984 48.6514L719.659 49.4248C718.593 48.9795 717.573 48.7568 716.601 48.7568C715.651 48.7568 714.896 48.9766 714.333 49.416C713.771 49.8555 713.489 50.4531 713.489 51.209C713.489 51.6836 713.574 52.0732 713.744 52.3779C713.92 52.6826 714.204 52.958 714.597 53.2041C714.989 53.4443 715.663 53.7344 716.618 54.0742C717.62 54.4199 718.373 54.7568 718.877 55.085C719.381 55.4072 719.747 55.7764 719.976 56.1924C720.21 56.6025 720.327 57.1006 720.327 57.6865ZM732.799 54.4521C732.799 56.6084 732.233 58.2402 731.103 59.3477C729.972 60.4492 728.311 61 726.119 61H723.043V48.1504H726.515C728.565 48.1504 730.124 48.6865 731.19 49.7588C732.263 50.8311 732.799 52.3955 732.799 54.4521ZM731.823 54.4873C731.823 52.6475 731.354 51.2646 730.417 50.3389C729.485 49.4072 728.114 48.9414 726.304 48.9414H723.939V60.209H726.066C729.904 60.209 731.823 58.3018 731.823 54.4873Z" fill="white"/>
<path d="M672.688 33L671.859 30.2812H667.695L666.867 33H664.258L668.289 21.5312H671.25L675.297 33H672.688ZM671.281 28.25C670.516 25.7865 670.083 24.3932 669.984 24.0703C669.891 23.7474 669.823 23.4922 669.781 23.3047C669.609 23.9714 669.117 25.6198 668.305 28.25H671.281ZM686.102 33H683.688V28.0703H679.164V33H676.742V21.5781H679.164V26.0547H683.688V21.5781H686.102V33ZM698.031 33H695.617V23.5938H692.82L692.695 24.6406C692.372 27.3021 692.086 29.1719 691.836 30.25C691.591 31.3229 691.232 32.0781 690.758 32.5156C690.284 32.9531 689.643 33.1667 688.836 33.1562C688.398 33.1562 688.013 33.099 687.68 32.9844V31C687.982 31.1042 688.266 31.1562 688.531 31.1562C688.807 31.1562 689.026 31.0312 689.188 30.7812C689.349 30.526 689.5 30.0573 689.641 29.375C689.786 28.6875 689.977 27.5651 690.211 26.0078C690.451 24.4453 690.654 22.9688 690.82 21.5781H698.031V33ZM700.914 21.5781H703.094V27.0938L703.062 28.5703L702.984 30.25H703.031L708.305 21.5781H711.203V33H709.047V27.5156C709.047 26.7812 709.094 25.6927 709.188 24.25H709.125L703.828 33H700.914V21.5781ZM718.922 33L716.172 24.0391H716.102C716.201 25.862 716.25 27.0781 716.25 27.6875V33H714.086V21.5781H717.383L720.086 30.3125H720.133L723 21.5781H726.297V33H724.039V27.5938C724.039 27.3385 724.042 27.0443 724.047 26.7109C724.057 26.3776 724.094 25.4922 724.156 24.0547H724.086L721.141 33H718.922Z" fill="white"/>
<path d="M2 219H1V220V278C1 279.105 1.89543 280 3 280H278H279V279V220V219H278H2Z" fill="white" stroke="#E5E5E5" stroke-width="2"/>
<rect x="1" y="158" width="278" height="61" fill="white" stroke="#E5E5E5" stroke-width="2"/>
<path d="M279 98V97H278H3C1.89543 97 1 97.8954 1 99V157V158H2H278H279V157V98Z" fill="white" stroke="#E5E5E5" stroke-width="2"/>
<path d="M30.5654 254H29.1572L24.5361 248.935V254H23.374V244.006H24.5361V248.846L29.041 244.006H30.374L25.9512 248.859L30.5654 254ZM40.6211 248.989C40.6211 250.589 40.2155 251.847 39.4043 252.763C38.5977 253.679 37.4743 254.137 36.0342 254.137C34.5622 254.137 33.4251 253.688 32.623 252.79C31.8255 251.888 31.4268 250.616 31.4268 248.976C31.4268 247.349 31.8278 246.089 32.6299 245.195C33.432 244.298 34.5713 243.849 36.0479 243.849C37.4834 243.849 38.6045 244.304 39.4111 245.216C40.2178 246.127 40.6211 247.385 40.6211 248.989ZM32.6572 248.989C32.6572 250.343 32.9443 251.37 33.5186 252.072C34.0973 252.77 34.9359 253.118 36.0342 253.118C37.1416 253.118 37.9779 252.77 38.543 252.072C39.1081 251.375 39.3906 250.347 39.3906 248.989C39.3906 247.645 39.1081 246.626 38.543 245.934C37.9824 245.236 37.1507 244.888 36.0479 244.888C34.9404 244.888 34.0973 245.239 33.5186 245.94C32.9443 246.638 32.6572 247.654 32.6572 248.989ZM47.2793 254L43.8887 245.141H43.834C43.8978 245.842 43.9297 246.676 43.9297 247.643V254H42.8564V244.006H44.6064L47.7715 252.25H47.8262L51.0186 244.006H52.7549V254H51.5928V247.561C51.5928 246.822 51.6247 246.02 51.6885 245.154H51.6338L48.2158 254H47.2793ZM59.9258 254L56.5352 245.141H56.4805C56.5443 245.842 56.5762 246.676 56.5762 247.643V254H55.5029V244.006H57.2529L60.418 252.25H60.4727L63.665 244.006H65.4014V254H64.2393V247.561C64.2393 246.822 64.2712 246.02 64.335 245.154H64.2803L60.8623 254H59.9258ZM73.7207 254H68.1494V244.006H73.7207V245.038H69.3115V248.258H73.4541V249.283H69.3115V252.961H73.7207V254ZM83.5303 254H82.3682V249.297H77.1045V254H75.9424V244.006H77.1045V248.258H82.3682V244.006H83.5303V254ZM89.3545 254H88.1924V245.038H85.0273V244.006H92.5195V245.038H89.3545V254ZM100.312 254L99.0684 250.821H95.0625L93.832 254H92.6562L96.6074 243.965H97.585L101.516 254H100.312ZM98.7061 249.775L97.5439 246.679C97.3936 246.287 97.2386 245.806 97.0791 245.236C96.9788 245.674 96.8353 246.155 96.6484 246.679L95.4727 249.775H98.7061ZM109.227 246.918C109.227 247.93 108.88 248.709 108.188 249.256C107.499 249.798 106.513 250.069 105.228 250.069H104.052V254H102.89V244.006H105.48C107.978 244.006 109.227 244.977 109.227 246.918ZM104.052 249.071H105.098C106.128 249.071 106.873 248.905 107.333 248.572C107.793 248.24 108.023 247.706 108.023 246.973C108.023 246.312 107.807 245.82 107.374 245.496C106.941 245.173 106.267 245.011 105.351 245.011H104.052V249.071ZM111.339 244.006H112.426V249.563C112.426 250.589 112.394 251.516 112.33 252.346H112.385L117.99 244.006H119.262V254H118.168V248.497C118.168 247.581 118.207 246.619 118.284 245.612H118.223L112.61 254H111.339V244.006ZM122.017 244.006H123.104V249.563C123.104 250.589 123.072 251.516 123.008 252.346H123.062L128.668 244.006H129.939V254H128.846V248.497C128.846 247.581 128.884 246.619 128.962 245.612H128.9L123.288 254H122.017V244.006Z" fill="#283645"/>
<path d="M27.6533 184.901C26.555 184.901 25.6868 185.268 25.0488 186.002C24.4154 186.731 24.0986 187.731 24.0986 189.003C24.0986 190.311 24.404 191.323 25.0146 192.038C25.6299 192.749 26.5049 193.104 27.6396 193.104C28.3369 193.104 29.1322 192.979 30.0254 192.729V193.747C29.3327 194.007 28.4782 194.137 27.4619 194.137C25.9899 194.137 24.8529 193.69 24.0508 192.797C23.2533 191.904 22.8545 190.634 22.8545 188.989C22.8545 187.959 23.0459 187.057 23.4287 186.282C23.8161 185.507 24.3721 184.91 25.0967 184.491C25.8258 184.072 26.6826 183.862 27.667 183.862C28.7152 183.862 29.6312 184.054 30.415 184.437L29.9229 185.435C29.1663 185.079 28.4098 184.901 27.6533 184.901ZM36.6289 194L33.2383 185.141H33.1836C33.2474 185.842 33.2793 186.676 33.2793 187.643V194H32.2061V184.006H33.9561L37.1211 192.25H37.1758L40.3682 184.006H42.1045V194H40.9424V187.561C40.9424 186.822 40.9743 186.02 41.0381 185.154H40.9834L37.5654 194H36.6289ZM51.1348 194L49.8906 190.821H45.8848L44.6543 194H43.4785L47.4297 183.965H48.4072L52.3379 194H51.1348ZM49.5283 189.775L48.3662 186.679C48.2158 186.287 48.0609 185.806 47.9014 185.236C47.8011 185.674 47.6576 186.155 47.4707 186.679L46.2949 189.775H49.5283ZM53.7256 184.006H54.8125V189.563C54.8125 190.589 54.7806 191.516 54.7168 192.346H54.7715L60.377 184.006H61.6484V194H60.5547V188.497C60.5547 187.581 60.5934 186.619 60.6709 185.612H60.6094L54.9971 194H53.7256V184.006ZM57.8682 183.206C57.0251 183.206 56.4098 183.044 56.0225 182.721C55.6351 182.393 55.4186 181.855 55.373 181.107H56.4395C56.4805 181.581 56.6035 181.912 56.8086 182.099C57.0182 182.285 57.3805 182.379 57.8955 182.379C58.3649 182.379 58.7113 182.279 58.9346 182.078C59.1624 181.878 59.3014 181.554 59.3516 181.107H60.4248C60.3701 181.827 60.14 182.358 59.7344 182.7C59.3288 183.037 58.7067 183.206 57.8682 183.206ZM71.499 194H70.3369V185.038H67.0898L66.8779 186.679C66.5999 188.862 66.3538 190.459 66.1396 191.471C65.93 192.478 65.652 193.18 65.3057 193.576C64.9593 193.973 64.499 194.166 63.9248 194.157C63.5876 194.157 63.2845 194.1 63.0156 193.986V193.009C63.2617 193.127 63.5192 193.187 63.7881 193.187C64.0296 193.187 64.2393 193.089 64.417 192.893C64.5993 192.692 64.7588 192.348 64.8955 191.86C65.0368 191.368 65.2122 190.438 65.4219 189.071C65.6361 187.7 65.8708 186.011 66.126 184.006H71.499V194ZM74.2607 184.006H75.3477V189.563C75.3477 190.589 75.3158 191.516 75.252 192.346H75.3066L80.9121 184.006H82.1836V194H81.0898V188.497C81.0898 187.581 81.1286 186.619 81.2061 185.612H81.1445L75.5322 194H74.2607V184.006ZM92.1162 194H90.708L86.0869 188.935V194H84.9248V184.006H86.0869V188.846L90.5918 184.006H91.9248L87.502 188.859L92.1162 194ZM93.5107 184.006H94.5977V189.563C94.5977 190.589 94.5658 191.516 94.502 192.346H94.5566L100.162 184.006H101.434V194H100.34V188.497C100.34 187.581 100.379 186.619 100.456 185.612H100.395L94.7822 194H93.5107V184.006Z" fill="#283645"/>
<path d="M29.7109 124.918C29.7109 125.93 29.3646 126.709 28.6719 127.256C27.9837 127.798 26.9971 128.069 25.7119 128.069H24.5361V132H23.374V122.006H25.9648C28.4622 122.006 29.7109 122.977 29.7109 124.918ZM24.5361 127.071H25.582C26.612 127.071 27.3571 126.905 27.8174 126.572C28.2777 126.24 28.5078 125.706 28.5078 124.973C28.5078 124.312 28.2913 123.82 27.8584 123.496C27.4255 123.173 26.751 123.011 25.835 123.011H24.5361V127.071ZM40.4844 126.989C40.4844 128.589 40.0788 129.847 39.2676 130.763C38.4609 131.679 37.3376 132.137 35.8975 132.137C34.4255 132.137 33.2884 131.688 32.4863 130.79C31.6888 129.888 31.29 128.616 31.29 126.976C31.29 125.349 31.6911 124.089 32.4932 123.195C33.2952 122.298 34.4346 121.849 35.9111 121.849C37.3467 121.849 38.4678 122.304 39.2744 123.216C40.0811 124.127 40.4844 125.385 40.4844 126.989ZM32.5205 126.989C32.5205 128.343 32.8076 129.37 33.3818 130.072C33.9606 130.77 34.7992 131.118 35.8975 131.118C37.0049 131.118 37.8411 130.77 38.4062 130.072C38.9714 129.375 39.2539 128.347 39.2539 126.989C39.2539 125.645 38.9714 124.626 38.4062 123.934C37.8457 123.236 37.014 122.888 35.9111 122.888C34.8037 122.888 33.9606 123.239 33.3818 123.94C32.8076 124.638 32.5205 125.654 32.5205 126.989ZM48.5166 124.344C48.5166 125 48.307 125.533 47.8877 125.943C47.473 126.354 46.8988 126.613 46.165 126.723V126.777C46.999 126.891 47.6302 127.153 48.0586 127.563C48.4915 127.974 48.708 128.509 48.708 129.17C48.708 130.104 48.3594 130.833 47.6621 131.357C46.9648 131.877 45.9805 132.137 44.709 132.137C43.5469 132.137 42.5944 131.957 41.8516 131.597V130.517C42.2891 130.726 42.7607 130.888 43.2666 131.002C43.777 131.116 44.2669 131.173 44.7363 131.173C45.6387 131.173 46.32 131.002 46.7803 130.66C47.2451 130.318 47.4775 129.826 47.4775 129.184C47.4775 128.573 47.2201 128.11 46.7051 127.796C46.1947 127.481 45.4313 127.324 44.415 127.324H42.9248V126.347H44.3535C45.2878 126.347 46.0101 126.18 46.5205 125.848C47.0355 125.51 47.293 125.041 47.293 124.439C47.293 123.952 47.1084 123.562 46.7393 123.271C46.3701 122.979 45.8734 122.833 45.249 122.833C44.7477 122.833 44.2943 122.89 43.8887 123.004C43.4831 123.118 43.0137 123.343 42.4805 123.681L41.9062 122.901C42.3665 122.56 42.8815 122.302 43.4512 122.129C44.0254 121.951 44.6201 121.862 45.2354 121.862C46.2607 121.862 47.0628 122.088 47.6416 122.539C48.2249 122.986 48.5166 123.587 48.5166 124.344ZM59.5293 126.989C59.5293 128.589 59.1237 129.847 58.3125 130.763C57.5059 131.679 56.3825 132.137 54.9424 132.137C53.4704 132.137 52.3333 131.688 51.5312 130.79C50.7337 129.888 50.335 128.616 50.335 126.976C50.335 125.349 50.736 124.089 51.5381 123.195C52.3402 122.298 53.4795 121.849 54.9561 121.849C56.3916 121.849 57.5127 122.304 58.3193 123.216C59.126 124.127 59.5293 125.385 59.5293 126.989ZM51.5654 126.989C51.5654 128.343 51.8525 129.37 52.4268 130.072C53.0055 130.77 53.8441 131.118 54.9424 131.118C56.0498 131.118 56.8861 130.77 57.4512 130.072C58.0163 129.375 58.2988 128.347 58.2988 126.989C58.2988 125.645 58.0163 124.626 57.4512 123.934C56.8906 123.236 56.0589 122.888 54.9561 122.888C53.8486 122.888 53.0055 123.239 52.4268 123.94C51.8525 124.638 51.5654 125.654 51.5654 126.989ZM61.7646 122.006H64.5879C65.9141 122.006 66.8734 122.204 67.4658 122.601C68.0583 122.997 68.3545 123.624 68.3545 124.48C68.3545 125.073 68.1882 125.563 67.8555 125.95C67.5273 126.333 67.0465 126.581 66.4131 126.695V126.764C67.9307 127.023 68.6895 127.821 68.6895 129.156C68.6895 130.049 68.3864 130.747 67.7803 131.248C67.1787 131.749 66.3356 132 65.251 132H61.7646V122.006ZM62.9268 126.285H64.8408C65.6611 126.285 66.2513 126.158 66.6113 125.902C66.9714 125.643 67.1514 125.207 67.1514 124.597C67.1514 124.036 66.9508 123.633 66.5498 123.387C66.1488 123.136 65.5107 123.011 64.6357 123.011H62.9268V126.285ZM62.9268 127.27V131.009H65.0117C65.8184 131.009 66.4245 130.854 66.8301 130.544C67.2402 130.229 67.4453 129.74 67.4453 129.074C67.4453 128.454 67.2357 127.999 66.8164 127.707C66.4017 127.415 65.7682 127.27 64.916 127.27H62.9268ZM70.8428 132V122.006H72.0049V126.271H73.6387C74.8281 126.271 75.735 126.506 76.3594 126.976C76.9837 127.44 77.2959 128.145 77.2959 129.088C77.2959 130.027 76.9997 130.747 76.4072 131.248C75.8193 131.749 74.958 132 73.8232 132H70.8428ZM72.0049 131.009H73.6934C74.5182 131.009 75.1243 130.849 75.5117 130.53C75.8991 130.207 76.0928 129.726 76.0928 129.088C76.0928 128.464 75.8877 128.012 75.4775 127.734C75.0719 127.452 74.4134 127.311 73.502 127.311H72.0049V131.009ZM80.0371 132H78.875V122.006H80.0371V132ZM82.8057 122.006H83.8926V127.563C83.8926 128.589 83.8607 129.516 83.7969 130.346H83.8516L89.457 122.006H90.7285V132H89.6348V126.497C89.6348 125.581 89.6735 124.619 89.751 123.612H89.6895L84.0771 132H82.8057V122.006ZM86.9482 121.206C86.1051 121.206 85.4899 121.044 85.1025 120.721C84.7152 120.393 84.4987 119.855 84.4531 119.107H85.5195C85.5605 119.581 85.6836 119.912 85.8887 120.099C86.0983 120.285 86.4606 120.379 86.9756 120.379C87.445 120.379 87.7913 120.279 88.0146 120.078C88.2425 119.878 88.3815 119.554 88.4316 119.107H89.5049C89.4502 119.827 89.2201 120.358 88.8145 120.7C88.4089 121.037 87.7868 121.206 86.9482 121.206ZM100.729 121.862H101.905V123.093H102.384C103.163 123.093 103.838 123.248 104.407 123.558C104.981 123.868 105.419 124.305 105.72 124.87C106.025 125.435 106.178 126.08 106.178 126.805C106.178 127.561 106.007 128.236 105.665 128.828C105.328 129.416 104.863 129.858 104.271 130.154C103.683 130.451 102.988 130.599 102.186 130.599H101.905V132.137H100.729V130.599H100.422C99.6198 130.599 98.9248 130.448 98.3369 130.147C97.749 129.847 97.2887 129.4 96.9561 128.808C96.6234 128.215 96.457 127.552 96.457 126.818C96.457 126.098 96.6097 125.456 96.915 124.891C97.2249 124.326 97.667 123.886 98.2412 123.571C98.8154 123.252 99.4922 123.093 100.271 123.093H100.729V121.862ZM101.905 129.621H102.076C102.992 129.621 103.703 129.373 104.209 128.876C104.719 128.375 104.975 127.68 104.975 126.791C104.975 125.948 104.74 125.287 104.271 124.809C103.801 124.33 103.145 124.091 102.302 124.091H101.905V129.621ZM100.729 124.091H100.34C99.5104 124.091 98.8564 124.332 98.3779 124.815C97.904 125.299 97.667 125.957 97.667 126.791C97.667 127.689 97.9199 128.386 98.4258 128.883C98.9316 129.375 99.6449 129.621 100.565 129.621H100.729V124.091ZM108.29 122.006H109.377V127.563C109.377 128.589 109.345 129.516 109.281 130.346H109.336L114.941 122.006H116.213V132H115.119V126.497C115.119 125.581 115.158 124.619 115.235 123.612H115.174L109.562 132H108.29V122.006ZM126.063 132H124.901V123.038H121.654L121.442 124.679C121.164 126.862 120.918 128.459 120.704 129.471C120.494 130.478 120.216 131.18 119.87 131.576C119.524 131.973 119.063 132.166 118.489 132.157C118.152 132.157 117.849 132.1 117.58 131.986V131.009C117.826 131.127 118.084 131.187 118.353 131.187C118.594 131.187 118.804 131.089 118.981 130.893C119.164 130.692 119.323 130.348 119.46 129.86C119.601 129.368 119.777 128.438 119.986 127.071C120.201 125.7 120.435 124.011 120.69 122.006H126.063V132ZM135.709 129.088C135.709 130.013 135.399 130.731 134.779 131.241C134.164 131.747 133.285 132 132.141 132H128.812V122.006H129.974V126.271H131.963C133.18 126.271 134.107 126.513 134.745 126.996C135.388 127.475 135.709 128.172 135.709 129.088ZM129.974 130.995H132.018C133.676 130.995 134.506 130.359 134.506 129.088C134.506 128.473 134.292 128.021 133.863 127.734C133.439 127.443 132.758 127.297 131.819 127.297H129.974V130.995ZM140.897 132H139.735V123.038H136.57V122.006H144.062V123.038H140.897V132ZM151.91 124.918C151.91 125.93 151.564 126.709 150.871 127.256C150.183 127.798 149.196 128.069 147.911 128.069H146.735V132H145.573V122.006H148.164C150.661 122.006 151.91 122.977 151.91 124.918ZM146.735 127.071H147.781C148.811 127.071 149.556 126.905 150.017 126.572C150.477 126.24 150.707 125.706 150.707 124.973C150.707 124.312 150.491 123.82 150.058 123.496C149.625 123.173 148.95 123.011 148.034 123.011H146.735V127.071Z" fill="#283645"/>
<path d="M247.644 249.506L258.553 238.587C258.695 238.447 258.807 238.28 258.884 238.096C258.96 237.913 259 237.716 259 237.517C259 237.318 258.96 237.121 258.884 236.937C258.807 236.753 258.695 236.587 258.553 236.447C258.268 236.166 257.884 236.008 257.483 236.008C257.083 236.008 256.699 236.166 256.414 236.447L245.505 247.367L234.586 236.447C234.446 236.305 234.28 236.193 234.096 236.116C233.913 236.04 233.716 236 233.517 236C233.318 236 233.121 236.04 232.937 236.116C232.753 236.193 232.587 236.305 232.447 236.447C232.166 236.732 232.008 237.116 232.008 237.517C232.008 237.917 232.166 238.301 232.447 238.587L243.366 249.506L232.447 260.416C232.305 260.556 232.193 260.723 232.116 260.906C232.04 261.09 232 261.287 232 261.486C232 261.685 232.04 261.882 232.116 262.066C232.193 262.249 232.305 262.416 232.447 262.556C232.731 262.839 233.115 262.999 233.517 262.999C233.918 262.999 234.302 262.839 234.586 262.556L245.505 251.646L256.414 262.556C256.698 262.839 257.082 262.999 257.483 263C257.783 263 258.075 262.911 258.324 262.744C258.572 262.578 258.766 262.342 258.881 262.065C258.995 261.789 259.025 261.485 258.967 261.191C258.908 260.898 258.765 260.628 258.553 260.416L247.644 249.506Z" fill="#F25B26"/>
<path d="M247.644 188.506L258.553 177.587C258.695 177.447 258.807 177.28 258.884 177.096C258.96 176.913 259 176.716 259 176.517C259 176.318 258.96 176.121 258.884 175.937C258.807 175.753 258.695 175.587 258.553 175.447C258.268 175.166 257.884 175.008 257.483 175.008C257.083 175.008 256.699 175.166 256.414 175.447L245.505 186.367L234.586 175.447C234.446 175.305 234.28 175.193 234.096 175.116C233.913 175.04 233.716 175 233.517 175C233.318 175 233.121 175.04 232.937 175.116C232.753 175.193 232.587 175.305 232.447 175.447C232.166 175.732 232.008 176.116 232.008 176.517C232.008 176.917 232.166 177.301 232.447 177.587L243.366 188.506L232.447 199.416C232.305 199.556 232.193 199.723 232.116 199.906C232.04 200.09 232 200.287 232 200.486C232 200.685 232.04 200.882 232.116 201.066C232.193 201.249 232.305 201.416 232.447 201.556C232.731 201.839 233.115 201.999 233.517 201.999C233.918 201.999 234.302 201.839 234.586 201.556L245.505 190.646L256.414 201.556C256.698 201.839 257.082 201.999 257.483 202C257.783 202 258.075 201.911 258.324 201.744C258.572 201.578 258.766 201.342 258.881 201.065C258.995 200.789 259.025 200.485 258.967 200.191C258.908 199.898 258.765 199.628 258.553 199.416L247.644 188.506Z" fill="#F25B26"/>
<path d="M260.556 117.43C260.413 117.293 260.244 117.185 260.057 117.112C259.87 117.038 259.67 117 259.468 117C259.265 117 259.065 117.038 258.878 117.112C258.691 117.185 258.522 117.293 258.379 117.43L240.374 134.496L232.578 127.11C232.287 126.853 231.903 126.714 231.506 126.72C231.109 126.727 230.73 126.879 230.449 127.145C230.168 127.411 230.007 127.77 230 128.146C229.993 128.523 230.141 128.887 230.411 129.162L239.291 137.574C239.433 137.709 239.602 137.817 239.788 137.89C239.974 137.963 240.173 138 240.374 138C240.781 137.999 241.17 137.846 241.458 137.574L260.556 119.482C260.84 119.208 261 118.84 261 118.456C261 118.072 260.84 117.703 260.556 117.43V117.43Z" fill="#3DC644"/>
<path d="M279 2V1H278H3C1.89543 1 1 1.89543 1 3V96V97H2H278H279V96V2Z" fill="#283645" stroke="#283645" stroke-width="2"/>
<path d="M109.062 61H108.2V51.6396C108.2 50.79 108.235 49.9082 108.306 48.9941C108.218 49.082 108.127 49.167 108.033 49.249C107.939 49.3311 107.034 50.043 105.317 51.3848L104.816 50.7607L108.306 48.1504H109.062V61ZM115.943 58.9082L116.049 59.0928C115.609 60.6455 115.1 62.0547 114.52 63.3203H113.948C114.399 61.709 114.722 60.2383 114.915 58.9082H115.943ZM126.323 53.5996C126.323 55.2871 126.101 56.6992 125.655 57.8359C125.216 58.9727 124.571 59.8135 123.722 60.3584C122.878 60.9033 121.855 61.1758 120.654 61.1758C120.045 61.1758 119.482 61.0996 118.967 60.9473V60.1914C119.219 60.2734 119.521 60.3379 119.872 60.3848C120.229 60.4258 120.502 60.4463 120.689 60.4463C122.137 60.4463 123.271 59.9248 124.091 58.8818C124.911 57.833 125.368 56.3066 125.462 54.3027H125.356C124.929 54.8652 124.419 55.2988 123.827 55.6035C123.235 55.9023 122.617 56.0518 121.973 56.0518C120.783 56.0518 119.854 55.7236 119.187 55.0674C118.524 54.4111 118.193 53.4795 118.193 52.2725C118.193 50.9834 118.557 49.9404 119.283 49.1436C120.016 48.3467 120.965 47.9482 122.131 47.9482C122.975 47.9482 123.713 48.1709 124.346 48.6162C124.979 49.0557 125.465 49.7031 125.805 50.5586C126.15 51.4141 126.323 52.4277 126.323 53.5996ZM122.131 48.7217C121.205 48.7217 120.467 49.0352 119.916 49.6621C119.365 50.2832 119.09 51.1357 119.09 52.2197C119.09 53.2393 119.345 54.0127 119.854 54.54C120.364 55.0674 121.094 55.3311 122.043 55.3311C122.635 55.3311 123.186 55.1992 123.695 54.9355C124.211 54.6719 124.618 54.3232 124.917 53.8896C125.222 53.4502 125.374 53.0049 125.374 52.5537C125.374 51.8682 125.236 51.2266 124.961 50.6289C124.691 50.0312 124.311 49.5654 123.818 49.2314C123.332 48.8916 122.77 48.7217 122.131 48.7217ZM136.606 53.5996C136.606 55.2871 136.384 56.6992 135.938 57.8359C135.499 58.9727 134.854 59.8135 134.005 60.3584C133.161 60.9033 132.139 61.1758 130.938 61.1758C130.328 61.1758 129.766 61.0996 129.25 60.9473V60.1914C129.502 60.2734 129.804 60.3379 130.155 60.3848C130.513 60.4258 130.785 60.4463 130.973 60.4463C132.42 60.4463 133.554 59.9248 134.374 58.8818C135.194 57.833 135.651 56.3066 135.745 54.3027H135.64C135.212 54.8652 134.702 55.2988 134.11 55.6035C133.519 55.9023 132.9 56.0518 132.256 56.0518C131.066 56.0518 130.138 55.7236 129.47 55.0674C128.808 54.4111 128.477 53.4795 128.477 52.2725C128.477 50.9834 128.84 49.9404 129.566 49.1436C130.299 48.3467 131.248 47.9482 132.414 47.9482C133.258 47.9482 133.996 48.1709 134.629 48.6162C135.262 49.0557 135.748 49.7031 136.088 50.5586C136.434 51.4141 136.606 52.4277 136.606 53.5996ZM132.414 48.7217C131.488 48.7217 130.75 49.0352 130.199 49.6621C129.648 50.2832 129.373 51.1357 129.373 52.2197C129.373 53.2393 129.628 54.0127 130.138 54.54C130.647 55.0674 131.377 55.3311 132.326 55.3311C132.918 55.3311 133.469 55.1992 133.979 54.9355C134.494 54.6719 134.901 54.3232 135.2 53.8896C135.505 53.4502 135.657 53.0049 135.657 52.5537C135.657 51.8682 135.52 51.2266 135.244 50.6289C134.975 50.0312 134.594 49.5654 134.102 49.2314C133.615 48.8916 133.053 48.7217 132.414 48.7217ZM153.728 48.1504V56.4648C153.728 57.9414 153.3 59.0957 152.444 59.9277C151.589 60.7598 150.396 61.1758 148.867 61.1758C147.379 61.1758 146.216 60.7598 145.378 59.9277C144.546 59.0898 144.13 57.9238 144.13 56.4297V48.1504H145.035V56.4648C145.035 57.7012 145.378 58.665 146.063 59.3564C146.749 60.042 147.719 60.3848 148.973 60.3848C150.197 60.3848 151.146 60.0479 151.82 59.374C152.494 58.6943 152.831 57.7539 152.831 56.5527V48.1504H153.728ZM164.327 57.6865C164.327 58.7588 163.932 59.6084 163.141 60.2354C162.355 60.8623 161.31 61.1758 160.003 61.1758C158.433 61.1758 157.229 61.0029 156.391 60.6572V59.7607C157.316 60.1533 158.497 60.3496 159.933 60.3496C160.987 60.3496 161.822 60.1094 162.438 59.6289C163.059 59.1426 163.369 58.5068 163.369 57.7217C163.369 57.2354 163.267 56.834 163.062 56.5176C162.856 56.1953 162.522 55.9023 162.06 55.6387C161.597 55.375 160.917 55.0908 160.021 54.7861C158.708 54.335 157.8 53.8486 157.296 53.3271C156.798 52.7998 156.549 52.0996 156.549 51.2266C156.549 50.2656 156.924 49.4834 157.674 48.8799C158.43 48.2705 159.399 47.9658 160.583 47.9658C161.79 47.9658 162.924 48.1943 163.984 48.6514L163.659 49.4248C162.593 48.9795 161.573 48.7568 160.601 48.7568C159.651 48.7568 158.896 48.9766 158.333 49.416C157.771 49.8555 157.489 50.4531 157.489 51.209C157.489 51.6836 157.574 52.0732 157.744 52.3779C157.92 52.6826 158.204 52.958 158.597 53.2041C158.989 53.4443 159.663 53.7344 160.618 54.0742C161.62 54.4199 162.373 54.7568 162.877 55.085C163.381 55.4072 163.747 55.7764 163.976 56.1924C164.21 56.6025 164.327 57.1006 164.327 57.6865ZM176.799 54.4521C176.799 56.6084 176.233 58.2402 175.103 59.3477C173.972 60.4492 172.311 61 170.119 61H167.043V48.1504H170.515C172.565 48.1504 174.124 48.6865 175.19 49.7588C176.263 50.8311 176.799 52.3955 176.799 54.4521ZM175.823 54.4873C175.823 52.6475 175.354 51.2646 174.417 50.3389C173.485 49.4072 172.114 48.9414 170.304 48.9414H167.939V60.209H170.066C173.904 60.209 175.823 58.3018 175.823 54.4873Z" fill="white"/>
<path d="M123.016 25.9609H123.969C125.458 25.9609 126.609 26.263 127.422 26.8672C128.234 27.4714 128.641 28.3255 128.641 29.4297C128.641 31.8099 127.068 33 123.922 33H120.594V21.5781H127.812V23.5781H123.016V25.9609ZM123.016 31.0156H123.828C124.646 31.0156 125.245 30.8854 125.625 30.625C126.005 30.3594 126.195 29.9609 126.195 29.4297C126.195 28.9036 126.003 28.526 125.617 28.2969C125.232 28.0625 124.57 27.9453 123.633 27.9453H123.016V31.0156ZM137.805 33L136.977 30.2812H132.812L131.984 33H129.375L133.406 21.5312H136.367L140.414 33H137.805ZM136.398 28.25C135.633 25.7865 135.201 24.3932 135.102 24.0703C135.008 23.7474 134.94 23.4922 134.898 23.3047C134.727 23.9714 134.234 25.6198 133.422 28.25H136.398ZM149.75 24.25C149.75 24.9844 149.49 25.5911 148.969 26.0703C148.448 26.5495 147.742 26.8542 146.852 26.9844V27.0312C147.898 27.1354 148.701 27.4245 149.258 27.8984C149.82 28.3724 150.102 28.9896 150.102 29.75C150.102 30.8021 149.674 31.6328 148.82 32.2422C147.971 32.8516 146.794 33.1562 145.289 33.1562C143.612 33.1562 142.266 32.9505 141.25 32.5391V30.5078C141.74 30.7422 142.312 30.9271 142.969 31.0625C143.63 31.1927 144.247 31.2578 144.82 31.2578C146.742 31.2578 147.703 30.6979 147.703 29.5781C147.703 29.0729 147.393 28.6849 146.773 28.4141C146.159 28.1432 145.247 28.0078 144.039 28.0078H142.969V26.1172H143.93C145.138 26.1172 146.018 26.0026 146.57 25.7734C147.122 25.5443 147.398 25.1641 147.398 24.6328C147.398 24.2422 147.224 23.9323 146.875 23.7031C146.531 23.4688 146.013 23.3516 145.32 23.3516C144.247 23.3516 143.211 23.6615 142.211 24.2812L141.156 22.6641C141.807 22.2318 142.497 21.9167 143.227 21.7188C143.956 21.5156 144.766 21.4141 145.656 21.4141C146.901 21.4141 147.893 21.6745 148.633 22.1953C149.378 22.7161 149.75 23.401 149.75 24.25ZM159.227 33L158.398 30.2812H154.234L153.406 33H150.797L154.828 21.5312H157.789L161.836 33H159.227ZM157.82 28.25C157.055 25.7865 156.622 24.3932 156.523 24.0703C156.43 23.7474 156.362 23.4922 156.32 23.3047C156.148 23.9714 155.656 25.6198 154.844 28.25H157.82Z" fill="white"/>
<path d="M280 219H279V220V278C279 279.105 279.895 280 281 280H556H557V279V220V219H556H280Z" fill="white" stroke="#E5E5E5" stroke-width="2"/>
<rect x="279" y="158" width="278" height="61" fill="white" stroke="#E5E5E5" stroke-width="2"/>
<path d="M557 98V97H556H281C279.895 97 279 97.8954 279 99V157V158H280H556H557V157V98Z" fill="white" stroke="#E5E5E5" stroke-width="2"/>
<path d="M308.565 254H307.157L302.536 248.935V254H301.374V244.006H302.536V248.846L307.041 244.006H308.374L303.951 248.859L308.565 254ZM318.621 248.989C318.621 250.589 318.215 251.847 317.404 252.763C316.598 253.679 315.474 254.137 314.034 254.137C312.562 254.137 311.425 253.688 310.623 252.79C309.826 251.888 309.427 250.616 309.427 248.976C309.427 247.349 309.828 246.089 310.63 245.195C311.432 244.298 312.571 243.849 314.048 243.849C315.483 243.849 316.604 244.304 317.411 245.216C318.218 246.127 318.621 247.385 318.621 248.989ZM310.657 248.989C310.657 250.343 310.944 251.37 311.519 252.072C312.097 252.77 312.936 253.118 314.034 253.118C315.142 253.118 315.978 252.77 316.543 252.072C317.108 251.375 317.391 250.347 317.391 248.989C317.391 247.645 317.108 246.626 316.543 245.934C315.982 245.236 315.151 244.888 314.048 244.888C312.94 244.888 312.097 245.239 311.519 245.94C310.944 246.638 310.657 247.654 310.657 248.989ZM325.279 254L321.889 245.141H321.834C321.898 245.842 321.93 246.676 321.93 247.643V254H320.856V244.006H322.606L325.771 252.25H325.826L329.019 244.006H330.755V254H329.593V247.561C329.593 246.822 329.625 246.02 329.688 245.154H329.634L326.216 254H325.279ZM337.926 254L334.535 245.141H334.48C334.544 245.842 334.576 246.676 334.576 247.643V254H333.503V244.006H335.253L338.418 252.25H338.473L341.665 244.006H343.401V254H342.239V247.561C342.239 246.822 342.271 246.02 342.335 245.154H342.28L338.862 254H337.926ZM351.721 254H346.149V244.006H351.721V245.038H347.312V248.258H351.454V249.283H347.312V252.961H351.721V254ZM361.53 254H360.368V249.297H355.104V254H353.942V244.006H355.104V248.258H360.368V244.006H361.53V254ZM367.354 254H366.192V245.038H363.027V244.006H370.52V245.038H367.354V254ZM378.312 254L377.068 250.821H373.062L371.832 254H370.656L374.607 243.965H375.585L379.516 254H378.312ZM376.706 249.775L375.544 246.679C375.394 246.287 375.239 245.806 375.079 245.236C374.979 245.674 374.835 246.155 374.648 246.679L373.473 249.775H376.706ZM387.227 246.918C387.227 247.93 386.88 248.709 386.188 249.256C385.499 249.798 384.513 250.069 383.228 250.069H382.052V254H380.89V244.006H383.48C385.978 244.006 387.227 244.977 387.227 246.918ZM382.052 249.071H383.098C384.128 249.071 384.873 248.905 385.333 248.572C385.793 248.24 386.023 247.706 386.023 246.973C386.023 246.312 385.807 245.82 385.374 245.496C384.941 245.173 384.267 245.011 383.351 245.011H382.052V249.071ZM389.339 244.006H390.426V249.563C390.426 250.589 390.394 251.516 390.33 252.346H390.385L395.99 244.006H397.262V254H396.168V248.497C396.168 247.581 396.207 246.619 396.284 245.612H396.223L390.61 254H389.339V244.006ZM400.017 244.006H401.104V249.563C401.104 250.589 401.072 251.516 401.008 252.346H401.062L406.668 244.006H407.939V254H406.846V248.497C406.846 247.581 406.884 246.619 406.962 245.612H406.9L401.288 254H400.017V244.006Z" fill="#283645"/>
<path d="M305.653 184.901C304.555 184.901 303.687 185.268 303.049 186.002C302.415 186.731 302.099 187.731 302.099 189.003C302.099 190.311 302.404 191.323 303.015 192.038C303.63 192.749 304.505 193.104 305.64 193.104C306.337 193.104 307.132 192.979 308.025 192.729V193.747C307.333 194.007 306.478 194.137 305.462 194.137C303.99 194.137 302.853 193.69 302.051 192.797C301.253 191.904 300.854 190.634 300.854 188.989C300.854 187.959 301.046 187.057 301.429 186.282C301.816 185.507 302.372 184.91 303.097 184.491C303.826 184.072 304.683 183.862 305.667 183.862C306.715 183.862 307.631 184.054 308.415 184.437L307.923 185.435C307.166 185.079 306.41 184.901 305.653 184.901ZM314.629 194L311.238 185.141H311.184C311.247 185.842 311.279 186.676 311.279 187.643V194H310.206V184.006H311.956L315.121 192.25H315.176L318.368 184.006H320.104V194H318.942V187.561C318.942 186.822 318.974 186.02 319.038 185.154H318.983L315.565 194H314.629ZM329.135 194L327.891 190.821H323.885L322.654 194H321.479L325.43 183.965H326.407L330.338 194H329.135ZM327.528 189.775L326.366 186.679C326.216 186.287 326.061 185.806 325.901 185.236C325.801 185.674 325.658 186.155 325.471 186.679L324.295 189.775H327.528ZM331.726 184.006H332.812V189.563C332.812 190.589 332.781 191.516 332.717 192.346H332.771L338.377 184.006H339.648V194H338.555V188.497C338.555 187.581 338.593 186.619 338.671 185.612H338.609L332.997 194H331.726V184.006ZM335.868 183.206C335.025 183.206 334.41 183.044 334.022 182.721C333.635 182.393 333.419 181.855 333.373 181.107H334.439C334.48 181.581 334.604 181.912 334.809 182.099C335.018 182.285 335.381 182.379 335.896 182.379C336.365 182.379 336.711 182.279 336.935 182.078C337.162 181.878 337.301 181.554 337.352 181.107H338.425C338.37 181.827 338.14 182.358 337.734 182.7C337.329 183.037 336.707 183.206 335.868 183.206ZM349.499 194H348.337V185.038H345.09L344.878 186.679C344.6 188.862 344.354 190.459 344.14 191.471C343.93 192.478 343.652 193.18 343.306 193.576C342.959 193.973 342.499 194.166 341.925 194.157C341.588 194.157 341.285 194.1 341.016 193.986V193.009C341.262 193.127 341.519 193.187 341.788 193.187C342.03 193.187 342.239 193.089 342.417 192.893C342.599 192.692 342.759 192.348 342.896 191.86C343.037 191.368 343.212 190.438 343.422 189.071C343.636 187.7 343.871 186.011 344.126 184.006H349.499V194ZM352.261 184.006H353.348V189.563C353.348 190.589 353.316 191.516 353.252 192.346H353.307L358.912 184.006H360.184V194H359.09V188.497C359.09 187.581 359.129 186.619 359.206 185.612H359.145L353.532 194H352.261V184.006ZM370.116 194H368.708L364.087 188.935V194H362.925V184.006H364.087V188.846L368.592 184.006H369.925L365.502 188.859L370.116 194ZM371.511 184.006H372.598V189.563C372.598 190.589 372.566 191.516 372.502 192.346H372.557L378.162 184.006H379.434V194H378.34V188.497C378.34 187.581 378.379 186.619 378.456 185.612H378.395L372.782 194H371.511V184.006Z" fill="#283645"/>
<path d="M307.711 124.918C307.711 125.93 307.365 126.709 306.672 127.256C305.984 127.798 304.997 128.069 303.712 128.069H302.536V132H301.374V122.006H303.965C306.462 122.006 307.711 122.977 307.711 124.918ZM302.536 127.071H303.582C304.612 127.071 305.357 126.905 305.817 126.572C306.278 126.24 306.508 125.706 306.508 124.973C306.508 124.312 306.291 123.82 305.858 123.496C305.425 123.173 304.751 123.011 303.835 123.011H302.536V127.071ZM318.484 126.989C318.484 128.589 318.079 129.847 317.268 130.763C316.461 131.679 315.338 132.137 313.897 132.137C312.425 132.137 311.288 131.688 310.486 130.79C309.689 129.888 309.29 128.616 309.29 126.976C309.29 125.349 309.691 124.089 310.493 123.195C311.295 122.298 312.435 121.849 313.911 121.849C315.347 121.849 316.468 122.304 317.274 123.216C318.081 124.127 318.484 125.385 318.484 126.989ZM310.521 126.989C310.521 128.343 310.808 129.37 311.382 130.072C311.961 130.77 312.799 131.118 313.897 131.118C315.005 131.118 315.841 130.77 316.406 130.072C316.971 129.375 317.254 128.347 317.254 126.989C317.254 125.645 316.971 124.626 316.406 123.934C315.846 123.236 315.014 122.888 313.911 122.888C312.804 122.888 311.961 123.239 311.382 123.94C310.808 124.638 310.521 125.654 310.521 126.989ZM326.517 124.344C326.517 125 326.307 125.533 325.888 125.943C325.473 126.354 324.899 126.613 324.165 126.723V126.777C324.999 126.891 325.63 127.153 326.059 127.563C326.492 127.974 326.708 128.509 326.708 129.17C326.708 130.104 326.359 130.833 325.662 131.357C324.965 131.877 323.98 132.137 322.709 132.137C321.547 132.137 320.594 131.957 319.852 131.597V130.517C320.289 130.726 320.761 130.888 321.267 131.002C321.777 131.116 322.267 131.173 322.736 131.173C323.639 131.173 324.32 131.002 324.78 130.66C325.245 130.318 325.478 129.826 325.478 129.184C325.478 128.573 325.22 128.11 324.705 127.796C324.195 127.481 323.431 127.324 322.415 127.324H320.925V126.347H322.354C323.288 126.347 324.01 126.18 324.521 125.848C325.035 125.51 325.293 125.041 325.293 124.439C325.293 123.952 325.108 123.562 324.739 123.271C324.37 122.979 323.873 122.833 323.249 122.833C322.748 122.833 322.294 122.89 321.889 123.004C321.483 123.118 321.014 123.343 320.48 123.681L319.906 122.901C320.367 122.56 320.882 122.302 321.451 122.129C322.025 121.951 322.62 121.862 323.235 121.862C324.261 121.862 325.063 122.088 325.642 122.539C326.225 122.986 326.517 123.587 326.517 124.344ZM337.529 126.989C337.529 128.589 337.124 129.847 336.312 130.763C335.506 131.679 334.382 132.137 332.942 132.137C331.47 132.137 330.333 131.688 329.531 130.79C328.734 129.888 328.335 128.616 328.335 126.976C328.335 125.349 328.736 124.089 329.538 123.195C330.34 122.298 331.479 121.849 332.956 121.849C334.392 121.849 335.513 122.304 336.319 123.216C337.126 124.127 337.529 125.385 337.529 126.989ZM329.565 126.989C329.565 128.343 329.853 129.37 330.427 130.072C331.006 130.77 331.844 131.118 332.942 131.118C334.05 131.118 334.886 130.77 335.451 130.072C336.016 129.375 336.299 128.347 336.299 126.989C336.299 125.645 336.016 124.626 335.451 123.934C334.891 123.236 334.059 122.888 332.956 122.888C331.849 122.888 331.006 123.239 330.427 123.94C329.853 124.638 329.565 125.654 329.565 126.989ZM339.765 122.006H342.588C343.914 122.006 344.873 122.204 345.466 122.601C346.058 122.997 346.354 123.624 346.354 124.48C346.354 125.073 346.188 125.563 345.855 125.95C345.527 126.333 345.047 126.581 344.413 126.695V126.764C345.931 127.023 346.689 127.821 346.689 129.156C346.689 130.049 346.386 130.747 345.78 131.248C345.179 131.749 344.336 132 343.251 132H339.765V122.006ZM340.927 126.285H342.841C343.661 126.285 344.251 126.158 344.611 125.902C344.971 125.643 345.151 125.207 345.151 124.597C345.151 124.036 344.951 123.633 344.55 123.387C344.149 123.136 343.511 123.011 342.636 123.011H340.927V126.285ZM340.927 127.27V131.009H343.012C343.818 131.009 344.424 130.854 344.83 130.544C345.24 130.229 345.445 129.74 345.445 129.074C345.445 128.454 345.236 127.999 344.816 127.707C344.402 127.415 343.768 127.27 342.916 127.27H340.927ZM348.843 132V122.006H350.005V126.271H351.639C352.828 126.271 353.735 126.506 354.359 126.976C354.984 127.44 355.296 128.145 355.296 129.088C355.296 130.027 355 130.747 354.407 131.248C353.819 131.749 352.958 132 351.823 132H348.843ZM350.005 131.009H351.693C352.518 131.009 353.124 130.849 353.512 130.53C353.899 130.207 354.093 129.726 354.093 129.088C354.093 128.464 353.888 128.012 353.478 127.734C353.072 127.452 352.413 127.311 351.502 127.311H350.005V131.009ZM358.037 132H356.875V122.006H358.037V132ZM360.806 122.006H361.893V127.563C361.893 128.589 361.861 129.516 361.797 130.346H361.852L367.457 122.006H368.729V132H367.635V126.497C367.635 125.581 367.674 124.619 367.751 123.612H367.689L362.077 132H360.806V122.006ZM364.948 121.206C364.105 121.206 363.49 121.044 363.103 120.721C362.715 120.393 362.499 119.855 362.453 119.107H363.52C363.561 119.581 363.684 119.912 363.889 120.099C364.098 120.285 364.461 120.379 364.976 120.379C365.445 120.379 365.791 120.279 366.015 120.078C366.243 119.878 366.382 119.554 366.432 119.107H367.505C367.45 119.827 367.22 120.358 366.814 120.7C366.409 121.037 365.787 121.206 364.948 121.206ZM378.729 121.862H379.905V123.093H380.384C381.163 123.093 381.838 123.248 382.407 123.558C382.981 123.868 383.419 124.305 383.72 124.87C384.025 125.435 384.178 126.08 384.178 126.805C384.178 127.561 384.007 128.236 383.665 128.828C383.328 129.416 382.863 129.858 382.271 130.154C381.683 130.451 380.988 130.599 380.186 130.599H379.905V132.137H378.729V130.599H378.422C377.62 130.599 376.925 130.448 376.337 130.147C375.749 129.847 375.289 129.4 374.956 128.808C374.623 128.215 374.457 127.552 374.457 126.818C374.457 126.098 374.61 125.456 374.915 124.891C375.225 124.326 375.667 123.886 376.241 123.571C376.815 123.252 377.492 123.093 378.271 123.093H378.729V121.862ZM379.905 129.621H380.076C380.992 129.621 381.703 129.373 382.209 128.876C382.719 128.375 382.975 127.68 382.975 126.791C382.975 125.948 382.74 125.287 382.271 124.809C381.801 124.33 381.145 124.091 380.302 124.091H379.905V129.621ZM378.729 124.091H378.34C377.51 124.091 376.856 124.332 376.378 124.815C375.904 125.299 375.667 125.957 375.667 126.791C375.667 127.689 375.92 128.386 376.426 128.883C376.932 129.375 377.645 129.621 378.565 129.621H378.729V124.091ZM386.29 122.006H387.377V127.563C387.377 128.589 387.345 129.516 387.281 130.346H387.336L392.941 122.006H394.213V132H393.119V126.497C393.119 125.581 393.158 124.619 393.235 123.612H393.174L387.562 132H386.29V122.006ZM404.063 132H402.901V123.038H399.654L399.442 124.679C399.164 126.862 398.918 128.459 398.704 129.471C398.494 130.478 398.216 131.18 397.87 131.576C397.524 131.973 397.063 132.166 396.489 132.157C396.152 132.157 395.849 132.1 395.58 131.986V131.009C395.826 131.127 396.084 131.187 396.353 131.187C396.594 131.187 396.804 131.089 396.981 130.893C397.164 130.692 397.323 130.348 397.46 129.86C397.601 129.368 397.777 128.438 397.986 127.071C398.201 125.7 398.435 124.011 398.69 122.006H404.063V132ZM413.709 129.088C413.709 130.013 413.399 130.731 412.779 131.241C412.164 131.747 411.285 132 410.141 132H406.812V122.006H407.974V126.271H409.963C411.18 126.271 412.107 126.513 412.745 126.996C413.388 127.475 413.709 128.172 413.709 129.088ZM407.974 130.995H410.018C411.676 130.995 412.506 130.359 412.506 129.088C412.506 128.473 412.292 128.021 411.863 127.734C411.439 127.443 410.758 127.297 409.819 127.297H407.974V130.995ZM418.897 132H417.735V123.038H414.57V122.006H422.062V123.038H418.897V132ZM429.91 124.918C429.91 125.93 429.564 126.709 428.871 127.256C428.183 127.798 427.196 128.069 425.911 128.069H424.735V132H423.573V122.006H426.164C428.661 122.006 429.91 122.977 429.91 124.918ZM424.735 127.071H425.781C426.811 127.071 427.556 126.905 428.017 126.572C428.477 126.24 428.707 125.706 428.707 124.973C428.707 124.312 428.491 123.82 428.058 123.496C427.625 123.173 426.95 123.011 426.034 123.011H424.735V127.071Z" fill="#283645"/>
<path d="M525.644 249.506L536.553 238.587C536.695 238.447 536.807 238.28 536.884 238.096C536.96 237.913 537 237.716 537 237.517C537 237.318 536.96 237.121 536.884 236.937C536.807 236.753 536.695 236.587 536.553 236.447C536.268 236.166 535.884 236.008 535.483 236.008C535.083 236.008 534.699 236.166 534.414 236.447L523.505 247.367L512.586 236.447C512.446 236.305 512.28 236.193 512.096 236.116C511.913 236.04 511.716 236 511.517 236C511.318 236 511.121 236.04 510.937 236.116C510.753 236.193 510.587 236.305 510.447 236.447C510.166 236.732 510.008 237.116 510.008 237.517C510.008 237.917 510.166 238.301 510.447 238.587L521.366 249.506L510.447 260.416C510.305 260.556 510.193 260.723 510.116 260.906C510.04 261.09 510 261.287 510 261.486C510 261.685 510.04 261.882 510.116 262.066C510.193 262.249 510.305 262.416 510.447 262.556C510.731 262.839 511.115 262.999 511.517 262.999C511.918 262.999 512.302 262.839 512.586 262.556L523.505 251.646L534.414 262.556C534.698 262.839 535.082 262.999 535.483 263C535.783 263 536.075 262.911 536.324 262.744C536.572 262.578 536.766 262.342 536.881 262.065C536.995 261.789 537.025 261.485 536.967 261.191C536.908 260.898 536.765 260.628 536.553 260.416L525.644 249.506Z" fill="#F25B26"/>
<path d="M538.556 117.43C538.413 117.293 538.244 117.185 538.057 117.112C537.87 117.038 537.67 117 537.468 117C537.265 117 537.065 117.038 536.878 117.112C536.691 117.185 536.522 117.293 536.379 117.43L518.374 134.496L510.578 127.11C510.287 126.853 509.903 126.714 509.506 126.72C509.109 126.727 508.73 126.879 508.449 127.145C508.168 127.411 508.007 127.77 508 128.146C507.993 128.523 508.141 128.887 508.411 129.162L517.291 137.574C517.433 137.709 517.602 137.817 517.788 137.89C517.974 137.963 518.173 138 518.374 138C518.781 137.999 519.17 137.846 519.458 137.574L538.556 119.482C538.84 119.208 539 118.84 539 118.456C539 118.072 538.84 117.703 538.556 117.43V117.43Z" fill="#3DC644"/>
<path d="M538.556 178.43C538.413 178.293 538.244 178.185 538.057 178.112C537.87 178.038 537.67 178 537.468 178C537.265 178 537.065 178.038 536.878 178.112C536.691 178.185 536.522 178.293 536.379 178.43L518.374 195.496L510.578 188.11C510.287 187.853 509.903 187.714 509.506 187.72C509.109 187.727 508.73 187.879 508.449 188.145C508.168 188.411 508.007 188.77 508 189.146C507.993 189.523 508.141 189.887 508.411 190.162L517.291 198.574C517.433 198.709 517.602 198.817 517.788 198.89C517.974 198.963 518.173 199 518.374 199C518.781 198.999 519.17 198.846 519.458 198.574L538.556 180.482C538.84 180.208 539 179.84 539 179.456C539 179.072 538.84 178.703 538.556 178.43V178.43Z" fill="#3DC644"/>
<path d="M557 2V1H556H281C279.895 1 279 1.89543 279 3V96V97H280H556H557V96V2Z" fill="#283645" stroke="#283645" stroke-width="2"/>
<path d="M389.672 51.1738C389.672 51.9707 389.42 52.6416 388.916 53.1865C388.418 53.7314 387.747 54.0801 386.903 54.2324V54.2852C387.935 54.4141 388.72 54.7422 389.259 55.2695C389.798 55.7969 390.067 56.5059 390.067 57.3965C390.067 58.5977 389.657 59.5293 388.837 60.1914C388.022 60.8477 386.848 61.1758 385.312 61.1758C384.006 61.1758 382.866 60.9326 381.894 60.4463V59.5762C382.386 59.834 382.937 60.0361 383.546 60.1826C384.161 60.3291 384.738 60.4023 385.277 60.4023C386.572 60.4023 387.545 60.1416 388.195 59.6201C388.846 59.0928 389.171 58.3516 389.171 57.3965C389.171 56.5469 388.837 55.8936 388.169 55.4365C387.507 54.9795 386.531 54.751 385.242 54.751H383.854V53.9072H385.26C386.326 53.9072 387.17 53.6553 387.791 53.1514C388.418 52.6416 388.731 51.9531 388.731 51.0859C388.731 50.3711 388.477 49.7998 387.967 49.3721C387.463 48.9385 386.801 48.7217 385.98 48.7217C385.342 48.7217 384.759 48.8125 384.231 48.9941C383.704 49.1699 383.112 49.4746 382.456 49.9082L382.025 49.3193C382.523 48.9033 383.124 48.5752 383.827 48.335C384.53 48.0889 385.242 47.9658 385.963 47.9658C387.146 47.9658 388.061 48.2471 388.705 48.8096C389.35 49.3662 389.672 50.1543 389.672 51.1738ZM393.943 58.9082L394.049 59.0928C393.609 60.6455 393.1 62.0547 392.52 63.3203H391.948C392.399 61.709 392.722 60.2383 392.915 58.9082H393.943ZM404.323 53.5996C404.323 55.2871 404.101 56.6992 403.655 57.8359C403.216 58.9727 402.571 59.8135 401.722 60.3584C400.878 60.9033 399.855 61.1758 398.654 61.1758C398.045 61.1758 397.482 61.0996 396.967 60.9473V60.1914C397.219 60.2734 397.521 60.3379 397.872 60.3848C398.229 60.4258 398.502 60.4463 398.689 60.4463C400.137 60.4463 401.271 59.9248 402.091 58.8818C402.911 57.833 403.368 56.3066 403.462 54.3027H403.356C402.929 54.8652 402.419 55.2988 401.827 55.6035C401.235 55.9023 400.617 56.0518 399.973 56.0518C398.783 56.0518 397.854 55.7236 397.187 55.0674C396.524 54.4111 396.193 53.4795 396.193 52.2725C396.193 50.9834 396.557 49.9404 397.283 49.1436C398.016 48.3467 398.965 47.9482 400.131 47.9482C400.975 47.9482 401.713 48.1709 402.346 48.6162C402.979 49.0557 403.465 49.7031 403.805 50.5586C404.15 51.4141 404.323 52.4277 404.323 53.5996ZM400.131 48.7217C399.205 48.7217 398.467 49.0352 397.916 49.6621C397.365 50.2832 397.09 51.1357 397.09 52.2197C397.09 53.2393 397.345 54.0127 397.854 54.54C398.364 55.0674 399.094 55.3311 400.043 55.3311C400.635 55.3311 401.186 55.1992 401.695 54.9355C402.211 54.6719 402.618 54.3232 402.917 53.8896C403.222 53.4502 403.374 53.0049 403.374 52.5537C403.374 51.8682 403.236 51.2266 402.961 50.6289C402.691 50.0312 402.311 49.5654 401.818 49.2314C401.332 48.8916 400.77 48.7217 400.131 48.7217ZM414.606 53.5996C414.606 55.2871 414.384 56.6992 413.938 57.8359C413.499 58.9727 412.854 59.8135 412.005 60.3584C411.161 60.9033 410.139 61.1758 408.938 61.1758C408.328 61.1758 407.766 61.0996 407.25 60.9473V60.1914C407.502 60.2734 407.804 60.3379 408.155 60.3848C408.513 60.4258 408.785 60.4463 408.973 60.4463C410.42 60.4463 411.554 59.9248 412.374 58.8818C413.194 57.833 413.651 56.3066 413.745 54.3027H413.64C413.212 54.8652 412.702 55.2988 412.11 55.6035C411.519 55.9023 410.9 56.0518 410.256 56.0518C409.066 56.0518 408.138 55.7236 407.47 55.0674C406.808 54.4111 406.477 53.4795 406.477 52.2725C406.477 50.9834 406.84 49.9404 407.566 49.1436C408.299 48.3467 409.248 47.9482 410.414 47.9482C411.258 47.9482 411.996 48.1709 412.629 48.6162C413.262 49.0557 413.748 49.7031 414.088 50.5586C414.434 51.4141 414.606 52.4277 414.606 53.5996ZM410.414 48.7217C409.488 48.7217 408.75 49.0352 408.199 49.6621C407.648 50.2832 407.373 51.1357 407.373 52.2197C407.373 53.2393 407.628 54.0127 408.138 54.54C408.647 55.0674 409.377 55.3311 410.326 55.3311C410.918 55.3311 411.469 55.1992 411.979 54.9355C412.494 54.6719 412.901 54.3232 413.2 53.8896C413.505 53.4502 413.657 53.0049 413.657 52.5537C413.657 51.8682 413.52 51.2266 413.244 50.6289C412.975 50.0312 412.594 49.5654 412.102 49.2314C411.615 48.8916 411.053 48.7217 410.414 48.7217ZM431.728 48.1504V56.4648C431.728 57.9414 431.3 59.0957 430.444 59.9277C429.589 60.7598 428.396 61.1758 426.867 61.1758C425.379 61.1758 424.216 60.7598 423.378 59.9277C422.546 59.0898 422.13 57.9238 422.13 56.4297V48.1504H423.035V56.4648C423.035 57.7012 423.378 58.665 424.063 59.3564C424.749 60.042 425.719 60.3848 426.973 60.3848C428.197 60.3848 429.146 60.0479 429.82 59.374C430.494 58.6943 430.831 57.7539 430.831 56.5527V48.1504H431.728ZM442.327 57.6865C442.327 58.7588 441.932 59.6084 441.141 60.2354C440.355 60.8623 439.31 61.1758 438.003 61.1758C436.433 61.1758 435.229 61.0029 434.391 60.6572V59.7607C435.316 60.1533 436.497 60.3496 437.933 60.3496C438.987 60.3496 439.822 60.1094 440.438 59.6289C441.059 59.1426 441.369 58.5068 441.369 57.7217C441.369 57.2354 441.267 56.834 441.062 56.5176C440.856 56.1953 440.522 55.9023 440.06 55.6387C439.597 55.375 438.917 55.0908 438.021 54.7861C436.708 54.335 435.8 53.8486 435.296 53.3271C434.798 52.7998 434.549 52.0996 434.549 51.2266C434.549 50.2656 434.924 49.4834 435.674 48.8799C436.43 48.2705 437.399 47.9658 438.583 47.9658C439.79 47.9658 440.924 48.1943 441.984 48.6514L441.659 49.4248C440.593 48.9795 439.573 48.7568 438.601 48.7568C437.651 48.7568 436.896 48.9766 436.333 49.416C435.771 49.8555 435.489 50.4531 435.489 51.209C435.489 51.6836 435.574 52.0732 435.744 52.3779C435.92 52.6826 436.204 52.958 436.597 53.2041C436.989 53.4443 437.663 53.7344 438.618 54.0742C439.62 54.4199 440.373 54.7568 440.877 55.085C441.381 55.4072 441.747 55.7764 441.976 56.1924C442.21 56.6025 442.327 57.1006 442.327 57.6865ZM454.799 54.4521C454.799 56.6084 454.233 58.2402 453.103 59.3477C451.972 60.4492 450.311 61 448.119 61H445.043V48.1504H448.515C450.565 48.1504 452.124 48.6865 453.19 49.7588C454.263 50.8311 454.799 52.3955 454.799 54.4521ZM453.823 54.4873C453.823 52.6475 453.354 51.2646 452.417 50.3389C451.485 49.4072 450.114 48.9414 448.304 48.9414H445.939V60.209H448.066C451.904 60.209 453.823 58.3018 453.823 54.4873Z" fill="white"/>
<path d="M381.609 23.4297C380.698 23.4297 379.992 23.7734 379.492 24.4609C378.992 25.1432 378.742 26.0964 378.742 27.3203C378.742 29.8672 379.698 31.1406 381.609 31.1406C382.411 31.1406 383.383 30.9401 384.523 30.5391V32.5703C383.586 32.9609 382.539 33.1562 381.383 33.1562C379.721 33.1562 378.451 32.6536 377.57 31.6484C376.69 30.638 376.25 29.1901 376.25 27.3047C376.25 26.1172 376.466 25.0781 376.898 24.1875C377.331 23.2917 377.951 22.6068 378.758 22.1328C379.57 21.6536 380.521 21.4141 381.609 21.4141C382.719 21.4141 383.833 21.6823 384.953 22.2188L384.172 24.1875C383.745 23.9844 383.315 23.8073 382.883 23.6562C382.451 23.5052 382.026 23.4297 381.609 23.4297ZM391.367 33H388.945V23.5938H385.844V21.5781H394.469V23.5938H391.367V33ZM403.219 33L402.391 30.2812H398.227L397.398 33H394.789L398.82 21.5312H401.781L405.828 33H403.219ZM401.812 28.25C401.047 25.7865 400.615 24.3932 400.516 24.0703C400.422 23.7474 400.354 23.4922 400.312 23.3047C400.141 23.9714 399.648 25.6198 398.836 28.25H401.812ZM416.633 33H414.219V28.0703H409.695V33H407.273V21.5781H409.695V26.0547H414.219V21.5781H416.633V33ZM418.164 30.9844H419.047C419.802 29.474 420.398 27.9661 420.836 26.4609C421.273 24.9505 421.599 23.3229 421.812 21.5781H428.469V30.9844H429.992V36.3281H427.656V33H420.5V36.3281H418.164V30.9844ZM423.734 23.5938C423.568 24.7865 423.289 26.0495 422.898 27.3828C422.513 28.7161 422.078 29.9167 421.594 30.9844H426.055V23.5938H423.734ZM438.75 33L437.922 30.2812H433.758L432.93 33H430.32L434.352 21.5312H437.312L441.359 33H438.75ZM437.344 28.25C436.578 25.7865 436.146 24.3932 436.047 24.0703C435.953 23.7474 435.885 23.4922 435.844 23.3047C435.672 23.9714 435.18 25.6198 434.367 28.25H437.344ZM445.227 26.9531H446.023C446.768 26.9531 447.326 26.8073 447.695 26.5156C448.065 26.2188 448.25 25.7891 448.25 25.2266C448.25 24.6589 448.094 24.2396 447.781 23.9688C447.474 23.6979 446.99 23.5625 446.328 23.5625H445.227V26.9531ZM450.695 25.1406C450.695 26.3698 450.31 27.3099 449.539 27.9609C448.773 28.612 447.682 28.9375 446.266 28.9375H445.227V33H442.805V21.5781H446.453C447.839 21.5781 448.891 21.8776 449.609 22.4766C450.333 23.0703 450.695 23.9583 450.695 25.1406ZM457.258 33H454.836V23.5938H451.734V21.5781H460.359V23.5938H457.258V33Z" fill="white"/>
<rect x="556" width="2" height="98" fill="#F2F2F2"/>
<rect x="278" width="2" height="98" fill="#F2F2F2"/>
<path d="M352 0L315 37L278 74V41L319 0H352Z" fill="#D22856"/>
<path d="M305.919 37.3147L304.986 38.2476L299.979 37.0392L301.153 42.0808L300.283 42.9509L298.939 36.9087L293.376 35.7244L294.284 34.8157L298.838 35.8598L297.808 31.2919L298.683 30.417L299.838 35.9516L305.919 37.3147ZM299.872 29.2279L300.641 28.4593L304.571 32.3892C305.296 33.1142 305.929 33.7925 306.47 34.4242L306.509 34.3855L304.575 24.5247L305.474 23.6256L312.541 30.6925L311.768 31.4659L307.877 27.5748C307.229 26.927 306.577 26.2197 305.919 25.4527L305.876 25.4962L307.838 35.3957L306.939 36.2948L299.872 29.2279ZM316.655 26.579L315.833 27.4007L309.496 21.0637L307.258 23.3017L306.528 22.5718L311.826 17.2741L312.556 18.004L310.318 20.242L316.655 26.579Z" fill="white"/>
</svg>
